/* XPM */
static char * bottom_left_inactive_xpm[] = {
"7 16 28 1",
" 	c None",
".	c #888888",
"+	c #242424",
"@	c #373737",
"#	c #666666",
"$	c #000000",
"%	c #676767",
"&	c #383838",
"*	c #686868",
"=	c #5D5D5D",
"-	c #535353",
";	c #444444",
">	c #393939",
",	c #1B1B1B",
"'	c #3E3E3E",
")	c #555555",
"!	c #4C4C4C",
"~	c #404040",
"{	c #040404",
"]	c #474747",
"^	c #4B4B4B",
"/	c #414141",
"(	c #202020",
"_	c #505050",
":	c #4D4D4D",
"<	c #030303",
"[	c #181818",
"}	c #0B0B0B",
".+@@@#$",
".+@@@#$",
".+@@@#$",
".+@@@%$",
".+@@&*$",
".+@@@#$",
".+@@@#$",
".+@@@#$",
".+@@@%$",
".+@@&*.",
".=-;>@+",
",')!~&@",
" {]!^/@",
" (@]_:&",
"  (<@:*",
"    [}$"};
