/* XPM */
static char * bottom_right_inactive_xpm[] = {
"7 16 28 1",
" 	c None",
".	c #000000",
"+	c #666666",
"@	c #373737",
"#	c #242424",
"$	c #888888",
"%	c #676767",
"&	c #686868",
"*	c #383838",
"=	c #393939",
"-	c #444444",
";	c #535353",
">	c #5D5D5D",
",	c #404040",
"'	c #4C4C4C",
")	c #555555",
"!	c #3E3E3E",
"~	c #1B1B1B",
"{	c #414141",
"]	c #4B4B4B",
"^	c #474747",
"/	c #040404",
"(	c #4D4D4D",
"_	c #505050",
":	c #202020",
"<	c #030303",
"[	c #0B0B0B",
"}	c #181818",
".+@@@#$",
".+@@@#$",
".+@@@#$",
".%@@@#$",
".&*@@#$",
".+@@@#$",
".+@@@#$",
".+@@@#$",
".%@@@#$",
"$&*@@#$",
"#@=-;>$",
"@*,')!~",
"@{]'^/ ",
"*(_^@: ",
"&(@<:  ",
".[}    "};
