/* XPM */
static char * bottom_active_xpm[] = {
"11 7 9 1",
" 	c None",
".	c #888888",
"+	c #242424",
"@	c #373737",
"#	c #383838",
"$	c #686868",
"%	c #666666",
"&	c #676767",
"*	c #000000",
"...........",
"+++++++++++",
"@@@@@@@@@@@",
"@@@@@@@@@@@",
"#@@@@@@@@@@",
"$%%%%%%%%%&",
"***********"};
