/* XPM */
static char * close_pressed_xpm[] = {
"26 26 369 2",
"  	c None",
". 	c #000000",
"+ 	c #171717",
"@ 	c #959595",
"# 	c #ABABAB",
"$ 	c #A9AAAB",
"% 	c #A7AAAC",
"& 	c #A6AAAD",
"* 	c #A8AAAC",
"= 	c #AAAAAB",
"- 	c #8E8E8E",
"; 	c #8C8E8F",
"> 	c #898E91",
", 	c #878E93",
"' 	c #858E95",
") 	c #838E96",
"! 	c #848E95",
"~ 	c #868E94",
"{ 	c #888E92",
"] 	c #8A8E90",
"^ 	c #646464",
"/ 	c #616568",
"( 	c #5F666B",
"_ 	c #5C6770",
": 	c #5A6975",
"< 	c #586A77",
"[ 	c #566A7A",
"} 	c #566B7B",
"| 	c #576A79",
"1 	c #596976",
"2 	c #5B6873",
"3 	c #5E676E",
"4 	c #60656A",
"5 	c #626465",
"6 	c #5E5E5E",
"7 	c #5B5F63",
"8 	c #586168",
"9 	c #55636F",
"0 	c #374B5A",
"a 	c #193244",
"b 	c #0A263C",
"c 	c #03233B",
"d 	c #03233C",
"e 	c #0A2942",
"f 	c #18364C",
"g 	c #354F63",
"h 	c #506677",
"i 	c #536472",
"j 	c #57626B",
"k 	c #5A6065",
"l 	c #5C5E60",
"m 	c #595959",
"n 	c #565A5D",
"o 	c #535C64",
"p 	c #505F6B",
"q 	c #213748",
"r 	c #06253C",
"s 	c #032744",
"t 	c #022E50",
"u 	c #03345A",
"v 	c #03365E",
"w 	c #032F50",
"x 	c #072D4B",
"y 	c #204058",
"z 	c #4A6377",
"A 	c #4E606F",
"B 	c #525E67",
"C 	c #555B60",
"D 	c #585959",
"E 	c #535353",
"F 	c #525355",
"G 	c #4F565B",
"H 	c #4B5965",
"I 	c #203648",
"J 	c #04233B",
"K 	c #032D4D",
"L 	c #033A65",
"M 	c #034679",
"N 	c #034E88",
"O 	c #04528F",
"P 	c #04508A",
"Q 	c #03497F",
"R 	c #043C69",
"S 	c #073152",
"T 	c #20425D",
"U 	c #455F73",
"V 	c #495B69",
"W 	c #4D5860",
"X 	c #505558",
"Y 	c #4D4D4D",
"Z 	c #4A4F52",
"` 	c #47525B",
" .	c #304453",
"..	c #0A273D",
"+.	c #032E4F",
"@.	c #033F6E",
"#.	c #04528E",
"$.	c #0461A8",
"%.	c #046AB7",
"&.	c #046CBB",
"*.	c #0468B4",
"=.	c #0460A8",
"-.	c #045594",
";.	c #054474",
">.	c #0E395B",
",.	c #2D4E68",
"'.	c #41586B",
").	c #45545F",
"!.	c #495056",
"~.	c #4C4D4E",
"{.	c #474747",
"].	c #464748",
"^.	c #434A50",
"/.	c #404F5B",
"(.	c #1C3447",
"_.	c #052B48",
":.	c #033C67",
"<.	c #045390",
"[.	c #0467B3",
"}.	c #3E94D7",
"|.	c #5B9DD2",
"1.	c #257CBE",
"2.	c #0162AD",
"3.	c #0361A9",
"4.	c #0460A7",
"5.	c #045695",
"6.	c #0A4470",
"7.	c #1E4664",
"8.	c #3A576D",
"9.	c #3E5160",
"0.	c #424C54",
"a.	c #45494C",
"b.	c #020202",
"c.	c #020304",
"d.	c #020B12",
"e.	c #031421",
"f.	c #0C293F",
"g.	c #043255",
"h.	c #034A80",
"i.	c #0462AB",
"j.	c #2282CB",
"k.	c #82B7DE",
"l.	c #85BBE3",
"m.	c #54A1DC",
"n.	c #006EC1",
"o.	c #005FA6",
"p.	c #025798",
"q.	c #045CA0",
"r.	c #074F87",
"s.	c #134063",
"t.	c #03253F",
"u.	c #03192A",
"v.	c #020F19",
"w.	c #02070A",
"x.	c #040404",
"y.	c #040709",
"z.	c #040F17",
"A.	c #041828",
"B.	c #102F47",
"C.	c #033861",
"D.	c #03528E",
"E.	c #046AB8",
"F.	c #1171BA",
"G.	c #5DA4DA",
"H.	c #409EE6",
"I.	c #1A91EC",
"J.	c #007CDB",
"K.	c #0068B6",
"L.	c #005392",
"M.	c #03589A",
"N.	c #045593",
"O.	c #1E4E73",
"P.	c #052A46",
"Q.	c #051D31",
"R.	c #04131E",
"S.	c #040A0E",
"T.	c #060606",
"U.	c #06090C",
"V.	c #061119",
"W.	c #061B2C",
"X.	c #14344D",
"Y.	c #033B68",
"Z.	c #046BB9",
"`.	c #0166B2",
" +	c #0E74BF",
".+	c #007BD9",
"++	c #0085EA",
"@+	c #0076D1",
"#+	c #0060A8",
"$+	c #00508E",
"%+	c #035695",
"&+	c #25577D",
"*+	c #072C49",
"=+	c #062033",
"-+	c #061622",
";+	c #060D12",
">+	c #090909",
",+	c #090C0E",
"'+	c #09131C",
")+	c #091D2D",
"!+	c #193952",
"~+	c #053C67",
"{+	c #045492",
"]+	c #0160A9",
"^+	c #006CBE",
"/+	c #007BD8",
"(+	c #0080E1",
"_+	c #0076CF",
":+	c #0061AB",
"<+	c #004B84",
"[+	c #035492",
"}+	c #065592",
"|+	c #26577D",
"1+	c #092E4B",
"2+	c #092236",
"3+	c #091824",
"4+	c #090F14",
"5+	c #0C0C0C",
"6+	c #0B0E0F",
"7+	c #0B151D",
"8+	c #0B1E2D",
"9+	c #1C3950",
"0+	c #0D3E64",
"a+	c #035FA6",
"b+	c #005CA1",
"c+	c #0064B0",
"d+	c #0067B5",
"e+	c #00508C",
"f+	c #004579",
"g+	c #0F568E",
"h+	c #215074",
"i+	c #0B2E48",
"j+	c #0B2335",
"k+	c #0B1923",
"l+	c #0B1116",
"m+	c #0E0E0E",
"n+	c #0D0F0F",
"o+	c #0D151C",
"p+	c #0D1E2B",
"q+	c #163044",
"r+	c #1F4665",
"s+	c #054576",
"t+	c #045FA6",
"u+	c #025595",
"v+	c #004E8B",
"w+	c #004982",
"x+	c #01457A",
"y+	c #034F8A",
"z+	c #245C89",
"A+	c #174162",
"B+	c #0D2B43",
"C+	c #0D2232",
"D+	c #0D1922",
"E+	c #0D1114",
"F+	c #121212",
"G+	c #111212",
"H+	c #11171C",
"I+	c #111E29",
"J+	c #102637",
"K+	c #22425B",
"L+	c #1F4F72",
"M+	c #05497E",
"N+	c #045C9F",
"O+	c #045595",
"P+	c #065491",
"Q+	c #1F5E90",
"R+	c #245276",
"S+	c #0F334F",
"T+	c #102A3F",
"U+	c #11212E",
"V+	c #111A20",
"W+	c #111415",
"X+	c #151515",
"Y+	c #14171A",
"Z+	c #141D24",
"`+	c #132432",
" @	c #122C40",
".@	c #284A64",
"+@	c #2C5B7E",
"@@	c #104E7E",
"#@	c #054F87",
"$@	c #04538F",
"%@	c #055592",
"&@	c #0F578F",
"*@	c #2A638F",
"=@	c #285679",
"-@	c #113755",
";@	c #122F46",
">@	c #132737",
",@	c #14202A",
"'@	c #14191E",
")@	c #141515",
"!@	c #181818",
"~@	c #171C21",
"{@	c #16222B",
"]@	c #162836",
"^@	c #152F43",
"/@	c #20415B",
"(@	c #325A78",
"_@	c #406D90",
":@	c #49799E",
"<@	c #4879A0",
"[@	c #3E6F94",
"}@	c #305F84",
"|@	c #204A6B",
"1@	c #143853",
"2@	c #153248",
"3@	c #152B3C",
"4@	c #162530",
"5@	c #171F25",
"6@	c #17191B",
"7@	c #1B1B1B",
"8@	c #1A1C1D",
"9@	c #1A2025",
"0@	c #19252E",
"a@	c #182A38",
"b@	c #182F41",
"c@	c #17344A",
"d@	c #163852",
"e@	c #163B57",
"f@	c #163B58",
"g@	c #163954",
"h@	c #17364D",
"i@	c #173246",
"j@	c #182D3C",
"k@	c #192733",
"l@	c #192229",
"m@	c #1A1E21",
"n@	c #1F1F1F",
"o@	c #1E2022",
"p@	c #1E2428",
"q@	c #1D2830",
"r@	c #1C2B36",
"s@	c #1C2F3D",
"t@	c #1B3143",
"u@	c #1B3447",
"v@	c #1B3448",
"w@	c #1B3345",
"x@	c #1B3041",
"y@	c #1C2D3A",
"z@	c #1D2933",
"A@	c #1D252C",
"B@	c #1E2225",
"C@	c #222222",
"D@	c #212222",
"E@	c #212528",
"F@	c #20272D",
"G@	c #202A32",
"H@	c #1F2C36",
"I@	c #1F2E39",
"J@	c #1F2E3B",
"K@	c #1F2E3A",
"L@	c #1F2D37",
"M@	c #1F2B35",
"N@	c #20292F",
"O@	c #21262A",
"P@	c #212325",
"Q@	c #252525",
"R@	c #242526",
"S@	c #24282A",
"T@	c #24282C",
"U@	c #23292E",
"V@	c #232A30",
"W@	c #232A2F",
"X@	c #242628",
"Y@	c #242525",
"Z@	c #282828",
"`@	c #272828",
" #	c #2B2B2B",
". . . . . . . . . . . . . . . . . . . . . . . . . + ",
"@ @ @ @ @ @ @ @ @ @ @ @ @ @ @ @ @ @ @ @ @ @ @ @ @ + ",
"# # # # # # # # # $ $ % & % * $ = # # # # # # # # + ",
"- - - - - - - ; > , ' ) ) ) ! ~ { ] - - - - - - - + ",
"^ ^ ^ ^ ^ ^ / ( _ : < [ } } | 1 2 3 4 5 ^ ^ ^ ^ ^ + ",
"6 6 6 6 6 7 8 9 0 a b c d e f g h i j k l 6 6 6 6 + ",
"m m m m n o p q r s t u v u w x y z A B C D m m m + ",
"E E E F G H I J K L M N O P Q R S T U V W X E E E + ",
"Y Y Y Z `  ...+.@.#.$.%.&.*.=.-.;.>.,.'.).!.~.Y Y + ",
"{.{.].^./.(._.:.<.[.}.|.1.2.3.4.5.6.7.8.9.0.a.{.{.+ ",
"b.b.c.d.e.f.g.h.i.j.k.l.m.n.o.p.q.r.s.t.u.v.w.b.b.+ ",
"x.x.y.z.A.B.C.D.E.F.G.H.I.J.K.L.M.N.O.P.Q.R.S.x.x.+ ",
"T.T.U.V.W.X.Y.5.Z.`. +.+++@+#+$+%+5.&+*+=+-+;+T.T.+ ",
">+>+,+'+)+!+~+{+[.]+^+/+(+_+:+<+[+}+|+1+2+3+4+>+>++ ",
"5+5+6+7+8+9+0+N $.a+b+c+d+#+e+f+-.g+h+i+j+k+l+5+5++ ",
"m+m+n+o+p+q+r+s+5.t+u+$+v+w+x+y+}+z+A+B+C+D+E+m+m++ ",
"F+F+G+H+I+J+K+L+M+-.N+M.%+[+O+P+Q+R+S+T+U+V+W+F+F++ ",
"X+X+X+Y+Z+`+ @.@+@@@#@$@N.%@&@*@=@-@;@>@,@'@)@X+X++ ",
"!@!@!@!@~@{@]@^@/@(@_@:@<@[@}@|@1@2@3@4@5@6@!@!@!@+ ",
"7@7@7@7@8@9@0@a@b@c@d@e@f@f@g@h@i@j@k@l@m@7@7@7@7@+ ",
"n@n@n@n@n@o@p@q@r@s@t@u@v@v@w@x@y@z@A@B@n@n@n@n@n@+ ",
"C@C@C@C@C@C@D@E@F@G@H@I@J@K@L@M@N@O@P@C@C@C@C@C@C@+ ",
"Q@Q@Q@Q@Q@Q@Q@Q@R@S@T@U@V@W@U@S@X@Y@Q@Q@Q@Q@Q@Q@Q@+ ",
"Z@Z@Z@Z@Z@Z@Z@Z@Z@Z@Z@`@`@`@Z@Z@Z@Z@Z@Z@Z@Z@Z@Z@Z@+ ",
" # # # # # # # # # # # # # # # # # # # # # # # # #+ ",
"+ + + + + + + + + + + + + + + + + + + + + + + + + + "};
