/* XPM */
static char * close_active_xpm[] = {
"26 26 170 2",
"  	c None",
". 	c #000000",
"+ 	c #171717",
"@ 	c #959595",
"# 	c #ABABAB",
"$ 	c #8E8E8E",
"% 	c #646464",
"& 	c #5E5E5E",
"* 	c #3F3F3F",
"= 	c #1D1D1D",
"- 	c #0A0A0A",
"; 	c #020202",
"> 	c #595959",
", 	c #262626",
"' 	c #060808",
") 	c #010305",
"! 	c #00060A",
"~ 	c #000911",
"{ 	c #000A12",
"] 	c #00080E",
"^ 	c #010507",
"/ 	c #070809",
"( 	c #272727",
"_ 	c #535353",
": 	c #252525",
"< 	c #030405",
"[ 	c #01070B",
"} 	c #000F1B",
"| 	c #00192C",
"1 	c #00213A",
"2 	c #002441",
"3 	c #00223C",
"4 	c #001B2F",
"5 	c #020F1A",
"6 	c #060809",
"7 	c #282828",
"8 	c #4D4D4D",
"9 	c #373737",
"0 	c #01080D",
"a 	c #001423",
"b 	c #002643",
"c 	c #003761",
"d 	c #004375",
"e 	c #00477C",
"f 	c #004173",
"g 	c #00355E",
"h 	c #002745",
"i 	c #031624",
"j 	c #101113",
"k 	c #393939",
"l 	c #474747",
"m 	c #202020",
"n 	c #04080A",
"o 	c #00121F",
"p 	c #002846",
"q 	c #004071",
"r 	c #6595BA",
"s 	c #6CA0C9",
"t 	c #2A79B5",
"u 	c #00599D",
"v 	c #004B84",
"w 	c #003B67",
"x 	c #0A1720",
"y 	c #0D0D0D",
"z 	c #020B12",
"A 	c #001F36",
"B 	c #003A66",
"C 	c #3575A6",
"D 	c #90BBDB",
"E 	c #88BCE3",
"F 	c #55A2DC",
"G 	c #006EC1",
"H 	c #005DA2",
"I 	c #00477D",
"J 	c #003359",
"K 	c #052135",
"L 	c #181818",
"M 	c #040404",
"N 	c #121212",
"O 	c #010F1B",
"P 	c #002845",
"Q 	c #004478",
"R 	c #1468A8",
"S 	c #60A5DA",
"T 	c #409EE6",
"U 	c #1A91EC",
"V 	c #007CDB",
"W 	c #0068B6",
"X 	c #004F8C",
"Y 	c #003863",
"Z 	c #012540",
"` 	c #292929",
" .	c #060606",
"..	c #001221",
"+.	c #002B4C",
"@.	c #004579",
"#.	c #005EA5",
"$.	c #0F74BF",
"%.	c #007BD9",
"&.	c #0085EA",
"*.	c #0076D1",
"=.	c #0060A8",
"-.	c #00508D",
";.	c #003964",
">.	c #002541",
",.	c #353535",
"'.	c #090909",
").	c #1E1E1E",
"!.	c #031421",
"~.	c #002949",
"{.	c #004070",
"].	c #005699",
"^.	c #006CBD",
"/.	c #007BD8",
"(.	c #0080E1",
"_.	c #0076CF",
":.	c #0061AB",
"<.	c #004A82",
"[.	c #00345C",
"}.	c #04243D",
"|.	c #363636",
"1.	c #0C0C0C",
"2.	c #212121",
"3.	c #0F1A23",
"4.	c #00223D",
"5.	c #00355D",
"6.	c #00477E",
"7.	c #00599C",
"8.	c #0064B0",
"9.	c #0067B5",
"0.	c #00508C",
"a.	c #003D6C",
"b.	c #002C4E",
"c.	c #142A3B",
"d.	c #2D2D2D",
"e.	c #0E0E0E",
"f.	c #191919",
"g.	c #282A2D",
"h.	c #031C2E",
"i.	c #002847",
"j.	c #004376",
"k.	c #004B85",
"l.	c #004D88",
"m.	c #003C6B",
"n.	c #003054",
"o.	c #03253E",
"p.	c #343B42",
"q.	c #2A2A2A",
"r.	c #293237",
"s.	c #031E33",
"t.	c #002F53",
"u.	c #00365E",
"v.	c #003258",
"w.	c #2E3B46",
"x.	c #323232",
"y.	c #151515",
"z.	c #3C4246",
"A.	c #142736",
"B.	c #022036",
"C.	c #02233A",
"D.	c #142B3D",
"E.	c #3F464B",
"F.	c #434343",
"G.	c #5B5B5B",
"H.	c #6B6B6B",
"I.	c #454545",
"J.	c #1B1B1B",
"K.	c #1F1F1F",
"L.	c #222222",
"M.	c #2B2B2B",
". . . . . . . . . . . . . . . . . . . . . . . . . + ",
"@ @ @ @ @ @ @ @ @ @ @ @ @ @ @ @ @ @ @ @ @ @ @ @ @ + ",
"# # # # # # # # # # # # # # # # # # # # # # # # # + ",
"$ $ $ $ $ $ $ $ $ $ $ $ $ $ $ $ $ $ $ $ $ $ $ $ $ + ",
"% % % % % % % % % % % % % % % % % % % % % % % % % + ",
"& & & & & & & & * = - ; ; - = * & & & & & & & & & + ",
"> > > > > > > , ' ) ! ~ { ] ^ / ( > > > > > > > > + ",
"_ _ _ _ _ _ : < [ } | 1 2 3 4 5 6 7 _ _ _ _ _ _ _ + ",
"8 8 8 8 8 9 - 0 a b c d e f g h i j k 8 8 8 8 8 8 + ",
"l l l l l m n o p q r s t u v w p x ( l l l l l l + ",
"; ; ; ; ; y z A B C D E F G H I J K L ; ; ; ; ; ; + ",
"M M M M M N O P Q R S T U V W X Y Z ` M M M M M M + ",
" . . . . .L ..+.@.#.$.%.&.*.=.-.;.>.,. . . . . . .+ ",
"'.'.'.'.'.).!.~.{.].^./.(._.:.<.[.}.|.'.'.'.'.'.'.+ ",
"1.1.1.1.1.2.3.4.5.6.7.8.9.=.0.a.b.c.d.1.1.1.1.1.1.+ ",
"e.e.e.e.e.f.g.h.i.c j.k.l.6.m.n.o.p.= e.e.e.e.e.e.+ ",
"N N N N N N q.r.s.b t.[.u.v.+.o.w.x.N N N N N N N + ",
"y.y.y.y.y.y.y.x.z.A.B.1 3 C.D.E.9 y.y.y.y.y.y.y.y.+ ",
"L L L L L L L L 7 F.G.H.H.G.I.q.L L L L L L L L L + ",
"J.J.J.J.J.J.J.J.J.J.J.J.J.J.J.J.J.J.J.J.J.J.J.J.J.+ ",
"K.K.K.K.K.K.K.K.K.K.K.K.K.K.K.K.K.K.K.K.K.K.K.K.K.+ ",
"L.L.L.L.L.L.L.L.L.L.L.L.L.L.L.L.L.L.L.L.L.L.L.L.L.+ ",
": : : : : : : : : : : : : : : : : : : : : : : : : + ",
"7 7 7 7 7 7 7 7 7 7 7 7 7 7 7 7 7 7 7 7 7 7 7 7 7 + ",
"M.M.M.M.M.M.M.M.M.M.M.M.M.M.M.M.M.M.M.M.M.M.M.M.M.+ ",
"+ + + + + + + + + + + + + + + + + + + + + + + + + + "};
