/* XPM */
static char * hide_inactive_xpm[] = {
"26 26 92 2",
"  	c None",
". 	c #000000",
"+ 	c #959595",
"@ 	c #ABABAB",
"# 	c #8E8E8E",
"$ 	c #646464",
"% 	c #5E5E5E",
"& 	c #4B4B4B",
"* 	c #2F2F2F",
"= 	c #171717",
"- 	c #070707",
"; 	c #595959",
"> 	c #373737",
", 	c #1B1B1B",
"' 	c #262626",
") 	c #313131",
"! 	c #353535",
"~ 	c #242424",
"{ 	c #1A1A1A",
"] 	c #535353",
"^ 	c #363636",
"/ 	c #1E1E1E",
"( 	c #2E2E2E",
"_ 	c #343434",
": 	c #393939",
"< 	c #3D3D3D",
"[ 	c #2B2B2B",
"} 	c #1D1D1D",
"| 	c #4D4D4D",
"1 	c #414141",
"2 	c #222222",
"3 	c #525252",
"4 	c #5F5F5F",
"5 	c #4E4E4E",
"6 	c #383838",
"7 	c #2A2A2A",
"8 	c #212121",
"9 	c #474747",
"0 	c #323232",
"a 	c #272727",
"b 	c #252525",
"c 	c #515151",
"d 	c #BABABA",
"e 	c #9F9F9F",
"f 	c #6D6D6D",
"g 	c #8F8F8F",
"h 	c #4A4A4A",
"i 	c #202020",
"j 	c #232323",
"k 	c #020202",
"l 	c #989898",
"m 	c #B1B1B1",
"n 	c #AEAEAE",
"o 	c #818181",
"p 	c #868686",
"q 	c #040404",
"r 	c #2D2D2D",
"s 	c #181818",
"t 	c #3B3B3B",
"u 	c #7F7F7F",
"v 	c #717171",
"w 	c #494949",
"x 	c #3F3F3F",
"y 	c #3C3C3C",
"z 	c #191919",
"A 	c #151515",
"B 	c #060606",
"C 	c #131313",
"D 	c #303030",
"E 	c #292929",
"F 	c #101010",
"G 	c #090909",
"H 	c #0E0E0E",
"I 	c #282828",
"J 	c #0C0C0C",
"K 	c #080808",
"L 	c #161616",
"M 	c #1C1C1C",
"N 	c #141414",
"O 	c #0A0A0A",
"P 	c #050505",
"Q 	c #0F0F0F",
"R 	c #0B0B0B",
"S 	c #404040",
"T 	c #121212",
"U 	c #3E3E3E",
"V 	c #030303",
"W 	c #4C4C4C",
"X 	c #454545",
"Y 	c #5B5B5B",
"Z 	c #6B6B6B",
"` 	c #1F1F1F",
". . . . . . . . . . . . . . . . . . . . . . . . . . ",
"+ + + + + + + + + + + + + + + + + + + + + + + + + + ",
"@ @ @ @ @ @ @ @ @ @ @ @ @ @ @ @ @ @ @ @ @ @ @ @ @ @ ",
"# # # # # # # # # # # # # # # # # # # # # # # # # # ",
"$ $ $ $ $ $ $ $ $ $ $ $ $ $ $ $ $ $ $ $ $ $ $ $ $ $ ",
"% % % % % % % % & * = - - = * & % % % % % % % % % % ",
"; ; ; ; ; ; ; > , ' ) ! ! * ~ { > ; ; ; ; ; ; ; ; ; ",
"] ] ] ] ] ] ^ / ( _ : < < > ) [ } ^ ] ] ] ] ] ] ] ] ",
"| | | | | 1 2 [ * < 3 4 % 5 6 7 ' 8 1 | | | | | | | ",
"9 9 9 9 9 0 a b _ c d e f g h ( i j 0 9 9 9 9 9 9 9 ",
"k k k k k } 2 2 < l m n o & p ^ } / } k k k k k k k ",
"q q q q q r s } t 1 u v w x y ! z A r q q q q q q q ",
"B B B B B > C A ( ! ^ ^ ! _ D E C F > B B B B B B B ",
"G G G G G > = H { I E E E a ~ s J A > G G G G G G G ",
"J J J J J ( a K J L M M M , N O - ' ( J J J J J J J ",
"H H H H H } 1 C P - J Q Q R B q C S } H H H H H H H ",
"T T T T T T 0 U T V V V V k k T U 0 T T T T T T T T ",
"A A A A A A A > W E Q q q Q E & > A A A A A A A A A ",
"s s s s s s s s 7 X Y Z Z Y X 7 s s s s s s s s s s ",
", , , , , , , , , , , , , , , , , , , , , , , , , , ",
"` ` ` ` ` ` ` ` ` ` ` ` ` ` ` ` ` ` ` ` ` ` ` ` ` ` ",
"2 2 2 2 2 2 2 2 2 2 2 2 2 2 2 2 2 2 2 2 2 2 2 2 2 2 ",
"b b b b b b b b b b b b b b b b b b b b b b b b b b ",
"I I I I I I I I I I I I I I I I I I I I I I I I I I ",
"[ [ [ [ [ [ [ [ [ [ [ [ [ [ [ [ [ [ [ [ [ [ [ [ [ [ ",
"= = = = = = = = = = = = = = = = = = = = = = = = = = "};
