/* XPM */
static char * left_inactive_xpm[] = {
"7 980 37 1",
" 	c None",
".	c #888888",
"+	c #242424",
"@	c #373737",
"#	c #383838",
"$	c #686868",
"%	c #000000",
"&	c #666666",
"*	c #676767",
"=	c #171717",
"-	c #4E4E4E",
";	c #222222",
">	c #0F0F0F",
",	c #0E0E0E",
"'	c #323232",
")	c #0C0C0C",
"!	c #2B2B2B",
"~	c #070707",
"{	c #282828",
"]	c #737373",
"^	c #3B3B3B",
"/	c #1C1C1C",
"(	c #8B8B8B",
"_	c #141414",
":	c #333333",
"<	c #8E8E8E",
"[	c #404040",
"}	c #717171",
"|	c #131313",
"1	c #262626",
"2	c #2E2E2E",
"3	c #343434",
"4	c #202020",
"5	c #5E5E5E",
"6	c #161616",
"7	c #191919",
"8	c #060606",
".+@@#$%",
".+@@@&%",
".+@@@&%",
".+@@@&%",
".+@@@&%",
".+@@@&%",
".+@@@&%",
".+@@@&%",
".+@@@&%",
".+@@@&%",
".+@@@*%",
".+@@#$%",
".+@@@&%",
".+@@@&%",
".+@@@&%",
".+@@@&%",
".+@@@&%",
".+@@@&%",
".+@@@&%",
".+@@@&%",
".+@@@&%",
".+@@@*%",
".+@@#$%",
".+@@@&%",
".+@@@&%",
".+@@@&%",
".+@@@&%",
".+@@@&%",
".+@@@&%",
".+@@@&%",
".+@@@&%",
".+@@@&%",
".+@@@*%",
".+@@#$%",
".+@@@&%",
".+@@@&%",
".+@@@&%",
".+@@@&%",
".+@@@&%",
".+@@@&%",
".+@@@&%",
".+@@@&%",
".+@@@&%",
".+@@@*%",
".+@@#$%",
".+@@@&%",
".+@@@&%",
".+@@@&%",
".+@@@&%",
".+@@@&%",
".+@@@&%",
".+@@@&%",
".+@@@&%",
".+@@@&%",
".+@@@*%",
".+@@#$%",
".+@@@&%",
".+@@@&%",
".+@@@&%",
".+@@@&%",
".+@@@&%",
".+@@@&%",
".+@@@&%",
".+@@@&%",
".+@@@&%",
".+@@@*%",
".+@@#$%",
".+@@@&%",
".+@@@&%",
".+@@@&%",
".+@@@&%",
".+@@@&%",
".+@@@&%",
".+@@@&%",
".+@@@&%",
".+@@@&%",
".+@@@*%",
".+@@#$%",
".+@@@&%",
".+@@@&%",
".+@@@&%",
".+@@@&%",
".+@@@&%",
".+@@@&%",
".+@@@&%",
".+@@@&%",
".+@@@&%",
".+@@@*%",
".+@@#$%",
".+@@@&%",
".+@@@&%",
".+@@@&%",
".+@@@&%",
".+@@@&%",
".+@@@&%",
".+@@@&%",
".+@@@&%",
".+@@@&%",
".+@@@*%",
".+@@#$%",
".+@@@&%",
".+@@@&%",
".+@@@&%",
".+@@@&%",
".+@@@&%",
".+@@@&%",
".+@@@&%",
".+@@@&%",
".+@@@&%",
".+@@@*%",
".+@@#$%",
".+@@@&%",
".+@@@&%",
".+@@@&%",
".+@@@&%",
".+@@@&%",
".+@@@&%",
".+@@@&%",
".+@@@&%",
".+@@@&%",
".+@@@*%",
".+@@#$%",
".+@@@&%",
".+@@@&%",
".+@@@&%",
".+@@@&%",
".+@@@&%",
".+@@@&%",
".+@@@&%",
".+@@@&%",
".+@@@&%",
".+@@@*%",
".+@@#$%",
".+@@@&%",
".+@@@&%",
".+@@@&%",
".+@@@&%",
".+@@@&%",
".+@@@&%",
".+@@@&%",
".+@@@&%",
".+@@@&%",
".+@@@*%",
".+@@#$%",
".+@@@&%",
".+@@@&%",
".+@@@&%",
".+@@@&%",
".+@@@&%",
".+@@@&%",
".+@@@&%",
".+@@@&%",
".+@@@&%",
".+@@@*%",
".+@@#$%",
".+@@@&%",
".+@@@&%",
".+@@@&%",
".+@@@&%",
".+@@@&%",
".+@@@&%",
".+@@@&%",
".+@@@&%",
".+@@@&%",
".+@@@*%",
".+@@#$%",
".+@@@&%",
".+@@@&%",
".+@@@&%",
".+@@@&%",
".+@@@&%",
".+@@@&%",
".+@@@&%",
".+@@@&%",
".+@@@&%",
".+@@@*%",
".+@@#$%",
".+@@@&%",
".+@@@&%",
".+@@@&%",
".+@@@&%",
".+@@@&%",
".+@@@&%",
".+@@@&%",
".+@@@&%",
".+@@@&%",
".+@@@*%",
".+@@#$%",
".+@@@&%",
".+@@@&%",
".+@@@&%",
".+@@@&%",
".+@@@&%",
".+@@@&%",
".+@@@&%",
".+@@@&%",
".+@@@&%",
".+@@@*%",
".+@@#$%",
".+@@@&%",
".+@@@&%",
".+@@@&%",
".+@@@&%",
".+@@@&%",
".+@@@&%",
".+@@@&%",
".+@@@&%",
".+@@@&%",
".+@@@*%",
".+@@#$%",
".+@@@&%",
".+@@@&%",
".+@@@&%",
".+@@@&%",
".+@@@&%",
".+@@@&%",
".+@@@&%",
".+@@@&%",
".+@@@&%",
".+@@@*%",
".+@@#$%",
".+@@@&%",
".+@@@&%",
".+@@@&%",
".+@@@&%",
".+@@@&%",
".+@@@&%",
".+@@@&%",
".+@@@&%",
".+@@@&%",
".+@@@*%",
".+@@#$%",
".+@@@&%",
".+@@@&%",
".+@@@&%",
".+@@@&%",
".+@@@&%",
".+@@@&%",
".+@@@&%",
".+@@@&%",
".+@@@&%",
".+@@@*%",
".+@@#$%",
".+@@@&%",
".+@@@&%",
".+@@@&%",
".+@@@&%",
".+@@@&%",
".+@@@&%",
".+@@@&%",
".+@@@&%",
".+@@@&%",
".+@@@*%",
".+@@#$%",
".+@@@&%",
".+@@@&%",
".+@@@&%",
".+@@@&%",
".+@@@&%",
".+@@@&%",
".+@@@&%",
".+@@@&%",
".+@@@&%",
".+@@@&%",
"%%%=@&%",
"%%-%=&%",
"%%%;>=%",
",,'%-%)",
"++%!%-~",
"{{]%^%/",
"%%%]('%",
"__:%<%_",
"{{%:%]{",
"{{]%[%{",
"%%%]<:%",
"__:%<%_",
"{{%:%]{",
"{{]%[%{",
"%%%]<:%",
"__:%<%_",
"{{%:%]{",
"{{]%[%{",
"%%%]<:%",
"__:%<%_",
"{{%:%]{",
"{{]%[%{",
"%%%]<:%",
"__:%<%_",
"{{%:%]{",
"{{]%[%{",
"%%%]<:%",
"__:%<%_",
"{{%:%]{",
"{{]%[%{",
"%%%]<:%",
"__:%<%_",
"{{%:%]{",
"{{]%[%{",
"%%%]<:%",
"__:%<%_",
"{{%:%]{",
"{{}%[%{",
"%%%]<:%",
"||1%(%_",
"//=2%}{",
"%%%%@%1",
"%%3451%",
".+@67%8",
".+@@6%%",
".+@@@&%",
".+@@@&%",
".+@@@&%",
".+@@@&%",
".+@@@&%",
".+@@@&%",
".+@@@*%",
".+@@#$%",
".+@@@&%",
".+@@@&%",
".+@@@&%",
".+@@@&%",
".+@@@&%",
".+@@@&%",
".+@@@&%",
".+@@@&%",
".+@@@&%",
".+@@@*%",
".+@@#$%",
".+@@@&%",
".+@@@&%",
".+@@@&%",
".+@@@&%",
".+@@@&%",
".+@@@&%",
".+@@@&%",
".+@@@&%",
".+@@@&%",
".+@@@*%",
".+@@#$%",
".+@@@&%",
".+@@@&%",
".+@@@&%",
".+@@@&%",
".+@@@&%",
".+@@@&%",
".+@@@&%",
".+@@@&%",
".+@@@&%",
".+@@@&%",
".+@@@&%",
".+@@@&%",
".+@@@*%",
".+@@#$%",
".+@@@&%",
".+@@@&%",
".+@@@&%",
".+@@@&%",
".+@@@&%",
".+@@@&%",
".+@@@&%",
".+@@@&%",
".+@@@&%",
".+@@@*%",
".+@@#$%",
".+@@@&%",
".+@@@&%",
".+@@@&%",
".+@@@&%",
".+@@@&%",
".+@@@&%",
".+@@@&%",
".+@@@&%",
".+@@@&%",
".+@@@*%",
".+@@#$%",
".+@@@&%",
".+@@@&%",
".+@@@&%",
".+@@@&%",
".+@@@&%",
".+@@@&%",
".+@@@&%",
".+@@@&%",
".+@@@&%",
".+@@@*%",
".+@@#$%",
".+@@@&%",
".+@@@&%",
".+@@@&%",
".+@@@&%",
".+@@@&%",
".+@@@&%",
".+@@@&%",
".+@@@&%",
".+@@@&%",
".+@@@*%",
".+@@#$%",
".+@@@&%",
".+@@@&%",
".+@@@&%",
".+@@@&%",
".+@@@&%",
".+@@@&%",
".+@@@&%",
".+@@@&%",
".+@@@&%",
".+@@@*%",
".+@@#$%",
".+@@@&%",
".+@@@&%",
".+@@@&%",
".+@@@&%",
".+@@@&%",
".+@@@&%",
".+@@@&%",
".+@@@&%",
".+@@@&%",
".+@@@*%",
".+@@#$%",
".+@@@&%",
".+@@@&%",
".+@@@&%",
".+@@@&%",
".+@@@&%",
".+@@@&%",
".+@@@&%",
".+@@@&%",
".+@@@&%",
".+@@@*%",
".+@@#$%",
".+@@@&%",
".+@@@&%",
".+@@@&%",
".+@@@&%",
".+@@@&%",
".+@@@&%",
".+@@@&%",
".+@@@&%",
".+@@@&%",
".+@@@*%",
".+@@#$%",
".+@@@&%",
".+@@@&%",
".+@@@&%",
".+@@@&%",
".+@@@&%",
".+@@@&%",
".+@@@&%",
".+@@@&%",
".+@@@&%",
".+@@@*%",
".+@@#$%",
".+@@@&%",
".+@@@&%",
".+@@@&%",
".+@@@&%",
".+@@@&%",
".+@@@&%",
".+@@@&%",
".+@@@&%",
".+@@@&%",
".+@@@*%",
".+@@#$%",
".+@@@&%",
".+@@@&%",
".+@@@&%",
".+@@@&%",
".+@@@&%",
".+@@@&%",
".+@@@&%",
".+@@@&%",
".+@@@&%",
".+@@@*%",
".+@@#$%",
".+@@@&%",
".+@@@&%",
".+@@@&%",
".+@@@&%",
".+@@@&%",
".+@@@&%",
".+@@@&%",
".+@@@&%",
".+@@@&%",
".+@@@*%",
".+@@#$%",
".+@@@&%",
".+@@@&%",
".+@@@&%",
".+@@@&%",
".+@@@&%",
".+@@@&%",
".+@@@&%",
".+@@@&%",
".+@@@&%",
".+@@@*%",
".+@@#$%",
".+@@@&%",
".+@@@&%",
".+@@@&%",
".+@@@&%",
".+@@@&%",
".+@@@&%",
".+@@@&%",
".+@@@&%",
".+@@@&%",
".+@@@*%",
".+@@#$%",
".+@@@&%",
".+@@@&%",
".+@@@&%",
".+@@@&%",
".+@@@&%",
".+@@@&%",
".+@@@&%",
".+@@@&%",
".+@@@&%",
".+@@@*%",
".+@@#$%",
".+@@@&%",
".+@@@&%",
".+@@@&%",
".+@@@&%",
".+@@@&%",
".+@@@&%",
".+@@@&%",
".+@@@&%",
".+@@@&%",
".+@@@*%",
".+@@#$%",
".+@@@&%",
".+@@@&%",
".+@@@&%",
".+@@@&%",
".+@@@&%",
".+@@@&%",
".+@@@&%",
".+@@@&%",
".+@@@&%",
".+@@@*%",
".+@@#$%",
".+@@@&%",
".+@@@&%",
".+@@@&%",
".+@@@&%",
".+@@@&%",
".+@@@&%",
".+@@@&%",
".+@@@&%",
".+@@@&%",
".+@@@*%",
".+@@#$%",
".+@@@&%",
".+@@@&%",
".+@@@&%",
".+@@@&%",
".+@@@&%",
".+@@@&%",
".+@@@&%",
".+@@@&%",
".+@@@&%",
".+@@@*%",
".+@@#$%",
".+@@@&%",
".+@@@&%",
".+@@@&%",
".+@@@&%",
".+@@@&%",
".+@@@&%",
".+@@@&%",
".+@@@&%",
".+@@@&%",
".+@@@*%",
".+@@#$%",
".+@@@&%",
".+@@@&%",
".+@@@&%",
".+@@@&%",
".+@@@&%",
".+@@@&%",
".+@@@&%",
".+@@@&%",
".+@@@&%",
".+@@@*%",
".+@@#$%",
".+@@@&%",
".+@@@&%",
".+@@@&%",
".+@@@&%",
".+@@@&%",
".+@@@&%",
".+@@@&%",
".+@@@&%",
".+@@@&%",
".+@@@*%",
".+@@#$%",
".+@@@&%",
".+@@@&%",
".+@@@&%",
".+@@@&%",
".+@@@&%",
".+@@@*%",
".+@@#$%",
".+@@@&%",
".+@@@&%",
".+@@@&%",
".+@@@&%",
".+@@@&%",
".+@@@&%",
".+@@@&%",
".+@@@&%",
".+@@@&%",
".+@@@*%",
".+@@#$%",
".+@@@&%",
".+@@@&%",
".+@@@&%",
".+@@@&%",
".+@@@&%",
".+@@@&%",
".+@@@&%",
".+@@@&%",
".+@@@&%",
".+@@@*%",
".+@@#$%",
".+@@@&%",
".+@@@&%",
".+@@@&%",
".+@@@&%",
".+@@@&%",
".+@@@&%",
".+@@@&%",
".+@@@&%",
".+@@@&%",
".+@@@*%",
".+@@#$%",
".+@@@&%",
".+@@@&%",
".+@@@&%",
".+@@@&%",
".+@@@&%",
".+@@@&%",
".+@@@&%",
".+@@@&%",
".+@@@&%",
".+@@@*%",
".+@@#$%",
".+@@@&%",
".+@@@&%",
".+@@@&%",
".+@@@&%",
".+@@@&%",
".+@@@&%",
".+@@@&%",
".+@@@&%",
".+@@@&%",
".+@@@*%",
".+@@#$%",
".+@@@&%",
".+@@@&%",
".+@@@&%",
".+@@@&%",
".+@@@&%",
".+@@@&%",
".+@@@&%",
".+@@@&%",
".+@@@&%",
".+@@@*%",
".+@@#$%",
".+@@@&%",
".+@@@&%",
".+@@@&%",
".+@@@&%",
".+@@@&%",
".+@@@&%",
".+@@@&%",
".+@@@&%",
".+@@@&%",
".+@@@*%",
".+@@#$%",
".+@@@&%",
".+@@@&%",
".+@@@&%",
".+@@@&%",
".+@@@&%",
".+@@@&%",
".+@@@&%",
".+@@@&%",
".+@@@&%",
".+@@@*%",
".+@@#$%",
".+@@@&%",
".+@@@&%",
".+@@@&%",
".+@@@&%",
".+@@@&%",
".+@@@&%",
".+@@@&%",
".+@@@&%",
".+@@@&%",
".+@@@*%",
".+@@#$%",
".+@@@&%",
".+@@@&%",
".+@@@&%",
".+@@@&%",
".+@@@&%",
".+@@@&%",
".+@@@&%",
".+@@@&%",
".+@@@&%",
".+@@@*%",
".+@@#$%",
".+@@@&%",
".+@@@&%",
".+@@@&%",
".+@@@&%",
".+@@@&%",
".+@@@&%",
".+@@@&%",
".+@@@&%",
".+@@@&%",
".+@@@*%",
".+@@#$%",
".+@@@&%",
".+@@@&%",
".+@@@&%",
".+@@@&%",
".+@@@&%",
".+@@@&%",
".+@@@&%",
".+@@@&%",
".+@@@&%",
".+@@@*%",
".+@@#$%",
".+@@@&%",
".+@@@&%",
".+@@@&%",
".+@@@&%",
".+@@@&%",
".+@@@&%",
".+@@@&%",
".+@@@&%",
".+@@@&%",
".+@@@*%",
".+@@#$%",
".+@@@&%",
".+@@@&%",
".+@@@&%",
".+@@@&%",
".+@@@&%",
".+@@@&%",
".+@@@&%",
".+@@@&%",
".+@@@&%",
".+@@@*%",
".+@@#$%",
".+@@@&%",
".+@@@&%",
".+@@@&%",
".+@@@&%",
".+@@@&%",
".+@@@&%",
".+@@@&%",
".+@@@&%",
".+@@@&%",
".+@@@*%",
".+@@#$%",
".+@@@&%",
".+@@@&%",
".+@@@&%",
".+@@@&%",
".+@@@&%",
".+@@@&%",
".+@@@&%",
".+@@@&%",
".+@@@&%",
".+@@@*%",
".+@@#$%",
".+@@@&%",
".+@@@&%",
".+@@@&%",
".+@@@&%",
".+@@@&%",
".+@@@&%",
".+@@@&%",
".+@@@&%",
".+@@@&%",
".+@@@*%",
".+@@#$%",
".+@@@&%",
".+@@@&%",
".+@@@&%",
".+@@@&%",
".+@@@&%",
".+@@@&%",
".+@@@&%",
".+@@@&%",
".+@@@&%",
".+@@@*%",
".+@@#$%",
".+@@@&%",
".+@@@&%",
".+@@@&%",
".+@@@&%",
".+@@@&%",
".+@@@&%",
".+@@@&%",
".+@@@&%",
".+@@@&%",
".+@@@*%",
".+@@#$%",
".+@@@&%",
".+@@@&%",
".+@@@&%",
".+@@@&%",
".+@@@&%",
".+@@@&%",
".+@@@&%",
".+@@@&%",
".+@@@&%",
".+@@@*%",
".+@@#$%",
".+@@@&%",
".+@@@&%",
".+@@@&%",
".+@@@&%",
".+@@@&%",
".+@@@&%",
".+@@@&%",
".+@@@&%",
".+@@@&%",
".+@@@*%",
".+@@#$%",
".+@@@&%",
".+@@@&%",
".+@@@&%",
".+@@@&%",
".+@@@&%",
".+@@@&%",
".+@@@&%",
".+@@@&%",
".+@@@&%",
".+@@@*%",
".+@@#$%",
".+@@@&%",
".+@@@&%",
".+@@@&%",
".+@@@&%",
".+@@@&%",
".+@@@&%",
".+@@@&%",
".+@@@&%",
".+@@@&%",
".+@@@*%",
".+@@#$%",
".+@@@&%",
".+@@@&%",
".+@@@*%",
".+@@#$%",
".+@@@&%",
".+@@@&%",
".+@@@&%",
".+@@@&%",
".+@@@&%",
".+@@@&%",
".+@@@&%",
".+@@@&%",
".+@@@&%",
".+@@@*%",
".+@@#$%",
".+@@@&%",
".+@@@&%",
".+@@@&%",
".+@@@&%",
".+@@@&%",
".+@@@&%",
".+@@@&%",
".+@@@&%",
".+@@@&%",
".+@@@*%",
".+@@#$%",
".+@@@&%",
".+@@@&%",
".+@@@&%",
".+@@@&%",
".+@@@&%",
".+@@@&%",
".+@@@&%",
".+@@@&%",
".+@@@&%",
".+@@@*%",
".+@@#$%",
".+@@@&%",
".+@@@&%",
".+@@@&%",
".+@@@&%",
".+@@@&%",
".+@@@&%",
".+@@@&%",
".+@@@&%",
".+@@@&%",
".+@@@*%",
".+@@#$%",
".+@@@&%",
".+@@@&%",
".+@@@&%",
".+@@@&%",
".+@@@&%",
".+@@@&%",
".+@@@&%",
".+@@@&%",
".+@@@&%",
".+@@@*%",
".+@@#$%",
".+@@@&%",
".+@@@&%",
".+@@@&%",
".+@@@&%",
".+@@@&%",
".+@@@&%",
".+@@@&%",
".+@@@&%",
".+@@@&%",
".+@@@*%",
".+@@#$%",
".+@@@&%",
".+@@@&%",
".+@@@&%",
".+@@@&%",
".+@@@&%",
".+@@@&%",
".+@@@&%",
".+@@@&%",
".+@@@&%",
".+@@@*%",
".+@@#$%",
".+@@@&%",
".+@@@&%",
".+@@@&%",
".+@@@&%",
".+@@@&%",
".+@@@&%",
".+@@@&%",
".+@@@&%",
".+@@@&%",
".+@@@*%",
".+@@#$%",
".+@@@&%",
".+@@@&%",
".+@@@&%",
".+@@@&%",
".+@@@&%",
".+@@@&%",
".+@@@&%",
".+@@@&%",
".+@@@&%",
".+@@@*%",
".+@@#$%",
".+@@@&%",
".+@@@&%",
".+@@@&%",
".+@@@&%",
".+@@@&%",
".+@@@&%",
".+@@@&%",
".+@@@&%",
".+@@@&%",
".+@@@*%",
".+@@#$%",
".+@@@&%",
".+@@@&%",
".+@@@&%",
".+@@@&%",
".+@@@&%",
".+@@@&%",
".+@@@&%",
".+@@@&%",
".+@@@&%",
".+@@@*%",
".+@@#$%"};
