/* XPM */
static char * left_active_xpm[] = {
"7 980 66 1",
" 	c None",
".	c #888888",
"+	c #242424",
"@	c #373737",
"#	c #383838",
"$	c #686868",
"%	c #000000",
"&	c #666666",
"*	c #676767",
"=	c #171717",
"-	c #4E4E4E",
";	c #0075BF",
">	c #067BC5",
",	c #0F0F0F",
"'	c #0E0E0E",
")	c #1C80C0",
"!	c #004B7A",
"~	c #0967A3",
"{	c #0C0C0C",
"]	c #005083",
"^	c #19415A",
"/	c #0A3D5E",
"(	c #0774B9",
"_	c #070707",
":	c #282828",
"<	c #196798",
"[	c #001C2E",
"}	c #3E5E71",
"|	c #00568D",
"1	c #1C1C1C",
"2	c #004E7F",
"3	c #243E4E",
"4	c #001A2A",
"5	c #2775A6",
"6	c #141414",
"7	c #3A87B9",
"8	c #314B5B",
"9	c #607A8A",
"0	c #748E9E",
"a	c #1A6799",
"b	c #7790A1",
"c	c #2B4455",
"d	c #354F5F",
"e	c #3986B8",
"f	c #136192",
"g	c #0C598B",
"h	c #264050",
"i	c #001F33",
"j	c #2D495B",
"k	c #131313",
"l	c #107DC2",
"m	c #154969",
"n	c #466E87",
"o	c #126395",
"p	c #09659F",
"q	c #0E537E",
"r	c #005C96",
"s	c #0678C1",
"t	c #262626",
"u	c #343434",
"v	c #202020",
"w	c #5E5E5E",
"x	c #4075FF",
"y	c #161616",
"z	c #191919",
"A	c #060606",
".+@@#$%",
".+@@@&%",
".+@@@&%",
".+@@@&%",
".+@@@&%",
".+@@@&%",
".+@@@&%",
".+@@@&%",
".+@@@&%",
".+@@@&%",
".+@@@*%",
".+@@#$%",
".+@@@&%",
".+@@@&%",
".+@@@&%",
".+@@@&%",
".+@@@&%",
".+@@@&%",
".+@@@&%",
".+@@@&%",
".+@@@&%",
".+@@@*%",
".+@@#$%",
".+@@@&%",
".+@@@&%",
".+@@@&%",
".+@@@&%",
".+@@@&%",
".+@@@&%",
".+@@@&%",
".+@@@&%",
".+@@@&%",
".+@@@*%",
".+@@#$%",
".+@@@&%",
".+@@@&%",
".+@@@&%",
".+@@@&%",
".+@@@&%",
".+@@@&%",
".+@@@&%",
".+@@@&%",
".+@@@&%",
".+@@@*%",
".+@@#$%",
".+@@@&%",
".+@@@&%",
".+@@@&%",
".+@@@&%",
".+@@@&%",
".+@@@&%",
".+@@@&%",
".+@@@&%",
".+@@@&%",
".+@@@*%",
".+@@#$%",
".+@@@&%",
".+@@@&%",
".+@@@&%",
".+@@@&%",
".+@@@&%",
".+@@@&%",
".+@@@&%",
".+@@@&%",
".+@@@&%",
".+@@@*%",
".+@@#$%",
".+@@@&%",
".+@@@&%",
".+@@@&%",
".+@@@&%",
".+@@@&%",
".+@@@&%",
".+@@@&%",
".+@@@&%",
".+@@@&%",
".+@@@*%",
".+@@#$%",
".+@@@&%",
".+@@@&%",
".+@@@&%",
".+@@@&%",
".+@@@&%",
".+@@@&%",
".+@@@&%",
".+@@@&%",
".+@@@&%",
".+@@@*%",
".+@@#$%",
".+@@@&%",
".+@@@&%",
".+@@@&%",
".+@@@&%",
".+@@@&%",
".+@@@&%",
".+@@@&%",
".+@@@&%",
".+@@@&%",
".+@@@*%",
".+@@#$%",
".+@@@&%",
".+@@@&%",
".+@@@&%",
".+@@@&%",
".+@@@&%",
".+@@@&%",
".+@@@&%",
".+@@@&%",
".+@@@&%",
".+@@@*%",
".+@@#$%",
".+@@@&%",
".+@@@&%",
".+@@@&%",
".+@@@&%",
".+@@@&%",
".+@@@&%",
".+@@@&%",
".+@@@&%",
".+@@@&%",
".+@@@*%",
".+@@#$%",
".+@@@&%",
".+@@@&%",
".+@@@&%",
".+@@@&%",
".+@@@&%",
".+@@@&%",
".+@@@&%",
".+@@@&%",
".+@@@&%",
".+@@@*%",
".+@@#$%",
".+@@@&%",
".+@@@&%",
".+@@@&%",
".+@@@&%",
".+@@@&%",
".+@@@&%",
".+@@@&%",
".+@@@&%",
".+@@@&%",
".+@@@*%",
".+@@#$%",
".+@@@&%",
".+@@@&%",
".+@@@&%",
".+@@@&%",
".+@@@&%",
".+@@@&%",
".+@@@&%",
".+@@@&%",
".+@@@&%",
".+@@@*%",
".+@@#$%",
".+@@@&%",
".+@@@&%",
".+@@@&%",
".+@@@&%",
".+@@@&%",
".+@@@&%",
".+@@@&%",
".+@@@&%",
".+@@@&%",
".+@@@*%",
".+@@#$%",
".+@@@&%",
".+@@@&%",
".+@@@&%",
".+@@@&%",
".+@@@&%",
".+@@@&%",
".+@@@&%",
".+@@@&%",
".+@@@&%",
".+@@@*%",
".+@@#$%",
".+@@@&%",
".+@@@&%",
".+@@@&%",
".+@@@&%",
".+@@@&%",
".+@@@&%",
".+@@@&%",
".+@@@&%",
".+@@@&%",
".+@@@*%",
".+@@#$%",
".+@@@&%",
".+@@@&%",
".+@@@&%",
".+@@@&%",
".+@@@&%",
".+@@@&%",
".+@@@&%",
".+@@@&%",
".+@@@&%",
".+@@@*%",
".+@@#$%",
".+@@@&%",
".+@@@&%",
".+@@@&%",
".+@@@&%",
".+@@@&%",
".+@@@&%",
".+@@@&%",
".+@@@&%",
".+@@@&%",
".+@@@*%",
".+@@#$%",
".+@@@&%",
".+@@@&%",
".+@@@&%",
".+@@@&%",
".+@@@&%",
".+@@@&%",
".+@@@&%",
".+@@@&%",
".+@@@&%",
".+@@@*%",
".+@@#$%",
".+@@@&%",
".+@@@&%",
".+@@@&%",
".+@@@&%",
".+@@@&%",
".+@@@&%",
".+@@@&%",
".+@@@&%",
".+@@@&%",
".+@@@*%",
".+@@#$%",
".+@@@&%",
".+@@@&%",
".+@@@&%",
".+@@@&%",
".+@@@&%",
".+@@@&%",
".+@@@&%",
".+@@@&%",
".+@@@&%",
".+@@@*%",
".+@@#$%",
".+@@@&%",
".+@@@&%",
".+@@@&%",
".+@@@&%",
".+@@@&%",
".+@@@&%",
".+@@@&%",
".+@@@&%",
".+@@@&%",
".+@@@*%",
".+@@#$%",
".+@@@&%",
".+@@@&%",
".+@@@&%",
".+@@@&%",
".+@@@&%",
".+@@@&%",
".+@@@&%",
".+@@@&%",
".+@@@&%",
".+@@@&%",
"%%%=@&%",
"%%-%=&%",
"%%;>,=%",
"'')!~%{",
"++]^/(_",
"::<[}|1",
"%%2345%",
"6674826",
"::290<:",
"::a4b2:",
"%%2c47%",
"6674d26",
"::29ba:",
"::a4b2:",
"%%2c47%",
"6674d26",
"::29ba:",
"::a4b2:",
"%%2c47%",
"6629ba6",
"::a4b2:",
"::2c47:",
"%%74d2%",
"6629ba6",
"::a4b2:",
"::2c47:",
"%%74d2%",
"6629ba6",
"::a4b2:",
"::2c47:",
"%%74d2%",
"6629ba6",
"::a4b2:",
"::2c47:",
"%%e4d2%",
"6629ba6",
"::f402:",
"::gh4e:",
"%%|ij2%",
"kklmno6",
"11=pqr:",
"%%%%s;t",
"%%uvwx%",
".+@yz%A",
".+@@y%%",
".+@@@&%",
".+@@@&%",
".+@@@&%",
".+@@@&%",
".+@@@&%",
".+@@@&%",
".+@@@*%",
".+@@#$%",
".+@@@&%",
".+@@@&%",
".+@@@&%",
".+@@@&%",
".+@@@&%",
".+@@@&%",
".+@@@&%",
".+@@@&%",
".+@@@&%",
".+@@@*%",
".+@@#$%",
".+@@@&%",
".+@@@&%",
".+@@@&%",
".+@@@&%",
".+@@@&%",
".+@@@&%",
".+@@@&%",
".+@@@&%",
".+@@@&%",
".+@@@*%",
".+@@#$%",
".+@@@&%",
".+@@@&%",
".+@@@&%",
".+@@@&%",
".+@@@&%",
".+@@@&%",
".+@@@&%",
".+@@@&%",
".+@@@&%",
".+@@@&%",
".+@@@&%",
".+@@@&%",
".+@@@*%",
".+@@#$%",
".+@@@&%",
".+@@@&%",
".+@@@&%",
".+@@@&%",
".+@@@&%",
".+@@@&%",
".+@@@&%",
".+@@@&%",
".+@@@&%",
".+@@@*%",
".+@@#$%",
".+@@@&%",
".+@@@&%",
".+@@@&%",
".+@@@&%",
".+@@@&%",
".+@@@&%",
".+@@@&%",
".+@@@&%",
".+@@@&%",
".+@@@*%",
".+@@#$%",
".+@@@&%",
".+@@@&%",
".+@@@&%",
".+@@@&%",
".+@@@&%",
".+@@@&%",
".+@@@&%",
".+@@@&%",
".+@@@&%",
".+@@@*%",
".+@@#$%",
".+@@@&%",
".+@@@&%",
".+@@@&%",
".+@@@&%",
".+@@@&%",
".+@@@&%",
".+@@@&%",
".+@@@&%",
".+@@@&%",
".+@@@*%",
".+@@#$%",
".+@@@&%",
".+@@@&%",
".+@@@&%",
".+@@@&%",
".+@@@&%",
".+@@@&%",
".+@@@&%",
".+@@@&%",
".+@@@&%",
".+@@@*%",
".+@@#$%",
".+@@@&%",
".+@@@&%",
".+@@@&%",
".+@@@&%",
".+@@@&%",
".+@@@&%",
".+@@@&%",
".+@@@&%",
".+@@@&%",
".+@@@*%",
".+@@#$%",
".+@@@&%",
".+@@@&%",
".+@@@&%",
".+@@@&%",
".+@@@&%",
".+@@@&%",
".+@@@&%",
".+@@@&%",
".+@@@&%",
".+@@@*%",
".+@@#$%",
".+@@@&%",
".+@@@&%",
".+@@@&%",
".+@@@&%",
".+@@@&%",
".+@@@&%",
".+@@@&%",
".+@@@&%",
".+@@@&%",
".+@@@*%",
".+@@#$%",
".+@@@&%",
".+@@@&%",
".+@@@&%",
".+@@@&%",
".+@@@&%",
".+@@@&%",
".+@@@&%",
".+@@@&%",
".+@@@&%",
".+@@@*%",
".+@@#$%",
".+@@@&%",
".+@@@&%",
".+@@@&%",
".+@@@&%",
".+@@@&%",
".+@@@&%",
".+@@@&%",
".+@@@&%",
".+@@@&%",
".+@@@*%",
".+@@#$%",
".+@@@&%",
".+@@@&%",
".+@@@&%",
".+@@@&%",
".+@@@&%",
".+@@@&%",
".+@@@&%",
".+@@@&%",
".+@@@&%",
".+@@@*%",
".+@@#$%",
".+@@@&%",
".+@@@&%",
".+@@@&%",
".+@@@&%",
".+@@@&%",
".+@@@&%",
".+@@@&%",
".+@@@&%",
".+@@@&%",
".+@@@*%",
".+@@#$%",
".+@@@&%",
".+@@@&%",
".+@@@&%",
".+@@@&%",
".+@@@&%",
".+@@@&%",
".+@@@&%",
".+@@@&%",
".+@@@&%",
".+@@@*%",
".+@@#$%",
".+@@@&%",
".+@@@&%",
".+@@@&%",
".+@@@&%",
".+@@@&%",
".+@@@&%",
".+@@@&%",
".+@@@&%",
".+@@@&%",
".+@@@*%",
".+@@#$%",
".+@@@&%",
".+@@@&%",
".+@@@&%",
".+@@@&%",
".+@@@&%",
".+@@@&%",
".+@@@&%",
".+@@@&%",
".+@@@&%",
".+@@@*%",
".+@@#$%",
".+@@@&%",
".+@@@&%",
".+@@@&%",
".+@@@&%",
".+@@@&%",
".+@@@&%",
".+@@@&%",
".+@@@&%",
".+@@@&%",
".+@@@*%",
".+@@#$%",
".+@@@&%",
".+@@@&%",
".+@@@&%",
".+@@@&%",
".+@@@&%",
".+@@@&%",
".+@@@&%",
".+@@@&%",
".+@@@&%",
".+@@@*%",
".+@@#$%",
".+@@@&%",
".+@@@&%",
".+@@@&%",
".+@@@&%",
".+@@@&%",
".+@@@&%",
".+@@@&%",
".+@@@&%",
".+@@@&%",
".+@@@*%",
".+@@#$%",
".+@@@&%",
".+@@@&%",
".+@@@&%",
".+@@@&%",
".+@@@&%",
".+@@@&%",
".+@@@&%",
".+@@@&%",
".+@@@&%",
".+@@@*%",
".+@@#$%",
".+@@@&%",
".+@@@&%",
".+@@@&%",
".+@@@&%",
".+@@@&%",
".+@@@&%",
".+@@@&%",
".+@@@&%",
".+@@@&%",
".+@@@*%",
".+@@#$%",
".+@@@&%",
".+@@@&%",
".+@@@&%",
".+@@@&%",
".+@@@&%",
".+@@@&%",
".+@@@&%",
".+@@@&%",
".+@@@&%",
".+@@@*%",
".+@@#$%",
".+@@@&%",
".+@@@&%",
".+@@@&%",
".+@@@&%",
".+@@@&%",
".+@@@&%",
".+@@@&%",
".+@@@&%",
".+@@@&%",
".+@@@*%",
".+@@#$%",
".+@@@&%",
".+@@@&%",
".+@@@&%",
".+@@@&%",
".+@@@&%",
".+@@@*%",
".+@@#$%",
".+@@@&%",
".+@@@&%",
".+@@@&%",
".+@@@&%",
".+@@@&%",
".+@@@&%",
".+@@@&%",
".+@@@&%",
".+@@@&%",
".+@@@*%",
".+@@#$%",
".+@@@&%",
".+@@@&%",
".+@@@&%",
".+@@@&%",
".+@@@&%",
".+@@@&%",
".+@@@&%",
".+@@@&%",
".+@@@&%",
".+@@@*%",
".+@@#$%",
".+@@@&%",
".+@@@&%",
".+@@@&%",
".+@@@&%",
".+@@@&%",
".+@@@&%",
".+@@@&%",
".+@@@&%",
".+@@@&%",
".+@@@*%",
".+@@#$%",
".+@@@&%",
".+@@@&%",
".+@@@&%",
".+@@@&%",
".+@@@&%",
".+@@@&%",
".+@@@&%",
".+@@@&%",
".+@@@&%",
".+@@@*%",
".+@@#$%",
".+@@@&%",
".+@@@&%",
".+@@@&%",
".+@@@&%",
".+@@@&%",
".+@@@&%",
".+@@@&%",
".+@@@&%",
".+@@@&%",
".+@@@*%",
".+@@#$%",
".+@@@&%",
".+@@@&%",
".+@@@&%",
".+@@@&%",
".+@@@&%",
".+@@@&%",
".+@@@&%",
".+@@@&%",
".+@@@&%",
".+@@@*%",
".+@@#$%",
".+@@@&%",
".+@@@&%",
".+@@@&%",
".+@@@&%",
".+@@@&%",
".+@@@&%",
".+@@@&%",
".+@@@&%",
".+@@@&%",
".+@@@*%",
".+@@#$%",
".+@@@&%",
".+@@@&%",
".+@@@&%",
".+@@@&%",
".+@@@&%",
".+@@@&%",
".+@@@&%",
".+@@@&%",
".+@@@&%",
".+@@@*%",
".+@@#$%",
".+@@@&%",
".+@@@&%",
".+@@@&%",
".+@@@&%",
".+@@@&%",
".+@@@&%",
".+@@@&%",
".+@@@&%",
".+@@@&%",
".+@@@*%",
".+@@#$%",
".+@@@&%",
".+@@@&%",
".+@@@&%",
".+@@@&%",
".+@@@&%",
".+@@@&%",
".+@@@&%",
".+@@@&%",
".+@@@&%",
".+@@@*%",
".+@@#$%",
".+@@@&%",
".+@@@&%",
".+@@@&%",
".+@@@&%",
".+@@@&%",
".+@@@&%",
".+@@@&%",
".+@@@&%",
".+@@@&%",
".+@@@*%",
".+@@#$%",
".+@@@&%",
".+@@@&%",
".+@@@&%",
".+@@@&%",
".+@@@&%",
".+@@@&%",
".+@@@&%",
".+@@@&%",
".+@@@&%",
".+@@@*%",
".+@@#$%",
".+@@@&%",
".+@@@&%",
".+@@@&%",
".+@@@&%",
".+@@@&%",
".+@@@&%",
".+@@@&%",
".+@@@&%",
".+@@@&%",
".+@@@*%",
".+@@#$%",
".+@@@&%",
".+@@@&%",
".+@@@&%",
".+@@@&%",
".+@@@&%",
".+@@@&%",
".+@@@&%",
".+@@@&%",
".+@@@&%",
".+@@@*%",
".+@@#$%",
".+@@@&%",
".+@@@&%",
".+@@@&%",
".+@@@&%",
".+@@@&%",
".+@@@&%",
".+@@@&%",
".+@@@&%",
".+@@@&%",
".+@@@*%",
".+@@#$%",
".+@@@&%",
".+@@@&%",
".+@@@&%",
".+@@@&%",
".+@@@&%",
".+@@@&%",
".+@@@&%",
".+@@@&%",
".+@@@&%",
".+@@@*%",
".+@@#$%",
".+@@@&%",
".+@@@&%",
".+@@@&%",
".+@@@&%",
".+@@@&%",
".+@@@&%",
".+@@@&%",
".+@@@&%",
".+@@@&%",
".+@@@*%",
".+@@#$%",
".+@@@&%",
".+@@@&%",
".+@@@&%",
".+@@@&%",
".+@@@&%",
".+@@@&%",
".+@@@&%",
".+@@@&%",
".+@@@&%",
".+@@@*%",
".+@@#$%",
".+@@@&%",
".+@@@&%",
".+@@@&%",
".+@@@&%",
".+@@@&%",
".+@@@&%",
".+@@@&%",
".+@@@&%",
".+@@@&%",
".+@@@*%",
".+@@#$%",
".+@@@&%",
".+@@@&%",
".+@@@&%",
".+@@@&%",
".+@@@&%",
".+@@@&%",
".+@@@&%",
".+@@@&%",
".+@@@&%",
".+@@@*%",
".+@@#$%",
".+@@@&%",
".+@@@&%",
".+@@@&%",
".+@@@&%",
".+@@@&%",
".+@@@&%",
".+@@@&%",
".+@@@&%",
".+@@@&%",
".+@@@*%",
".+@@#$%",
".+@@@&%",
".+@@@&%",
".+@@@&%",
".+@@@&%",
".+@@@&%",
".+@@@&%",
".+@@@&%",
".+@@@&%",
".+@@@&%",
".+@@@*%",
".+@@#$%",
".+@@@&%",
".+@@@&%",
".+@@@&%",
".+@@@&%",
".+@@@&%",
".+@@@&%",
".+@@@&%",
".+@@@&%",
".+@@@&%",
".+@@@*%",
".+@@#$%",
".+@@@&%",
".+@@@&%",
".+@@@*%",
".+@@#$%",
".+@@@&%",
".+@@@&%",
".+@@@&%",
".+@@@&%",
".+@@@&%",
".+@@@&%",
".+@@@&%",
".+@@@&%",
".+@@@&%",
".+@@@*%",
".+@@#$%",
".+@@@&%",
".+@@@&%",
".+@@@&%",
".+@@@&%",
".+@@@&%",
".+@@@&%",
".+@@@&%",
".+@@@&%",
".+@@@&%",
".+@@@*%",
".+@@#$%",
".+@@@&%",
".+@@@&%",
".+@@@&%",
".+@@@&%",
".+@@@&%",
".+@@@&%",
".+@@@&%",
".+@@@&%",
".+@@@&%",
".+@@@*%",
".+@@#$%",
".+@@@&%",
".+@@@&%",
".+@@@&%",
".+@@@&%",
".+@@@&%",
".+@@@&%",
".+@@@&%",
".+@@@&%",
".+@@@&%",
".+@@@*%",
".+@@#$%",
".+@@@&%",
".+@@@&%",
".+@@@&%",
".+@@@&%",
".+@@@&%",
".+@@@&%",
".+@@@&%",
".+@@@&%",
".+@@@&%",
".+@@@*%",
".+@@#$%",
".+@@@&%",
".+@@@&%",
".+@@@&%",
".+@@@&%",
".+@@@&%",
".+@@@&%",
".+@@@&%",
".+@@@&%",
".+@@@&%",
".+@@@*%",
".+@@#$%",
".+@@@&%",
".+@@@&%",
".+@@@&%",
".+@@@&%",
".+@@@&%",
".+@@@&%",
".+@@@&%",
".+@@@&%",
".+@@@&%",
".+@@@*%",
".+@@#$%",
".+@@@&%",
".+@@@&%",
".+@@@&%",
".+@@@&%",
".+@@@&%",
".+@@@&%",
".+@@@&%",
".+@@@&%",
".+@@@&%",
".+@@@*%",
".+@@#$%",
".+@@@&%",
".+@@@&%",
".+@@@&%",
".+@@@&%",
".+@@@&%",
".+@@@&%",
".+@@@&%",
".+@@@&%",
".+@@@&%",
".+@@@*%",
".+@@#$%",
".+@@@&%",
".+@@@&%",
".+@@@&%",
".+@@@&%",
".+@@@&%",
".+@@@&%",
".+@@@&%",
".+@@@&%",
".+@@@&%",
".+@@@*%",
".+@@#$%",
".+@@@&%",
".+@@@&%",
".+@@@&%",
".+@@@&%",
".+@@@&%",
".+@@@&%",
".+@@@&%",
".+@@@&%",
".+@@@&%",
".+@@@*%",
".+@@#$%"};
