/* XPM */
static char * maximize_pressed_xpm[] = {
"26 26 369 2",
"  	c None",
". 	c #000000",
"+ 	c #959595",
"@ 	c #ABABAB",
"# 	c #A9AAAB",
"$ 	c #A7AAAC",
"% 	c #A6AAAD",
"& 	c #A8AAAC",
"* 	c #AAAAAB",
"= 	c #8E8E8E",
"- 	c #8C8E8F",
"; 	c #898E91",
"> 	c #878E93",
", 	c #858E95",
"' 	c #838E96",
") 	c #848E95",
"! 	c #868E94",
"~ 	c #888E92",
"{ 	c #8A8E90",
"] 	c #646464",
"^ 	c #616568",
"/ 	c #5F666B",
"( 	c #5C6770",
"_ 	c #5A6975",
": 	c #586A77",
"< 	c #566A7A",
"[ 	c #566B7B",
"} 	c #576A79",
"| 	c #596976",
"1 	c #5B6873",
"2 	c #5E676E",
"3 	c #60656A",
"4 	c #626465",
"5 	c #5E5E5E",
"6 	c #5B5F63",
"7 	c #586168",
"8 	c #55636F",
"9 	c #374B5A",
"0 	c #193244",
"a 	c #0A263C",
"b 	c #03233B",
"c 	c #03233C",
"d 	c #0A2942",
"e 	c #18364C",
"f 	c #354F63",
"g 	c #506677",
"h 	c #536472",
"i 	c #57626B",
"j 	c #5A6065",
"k 	c #5C5E60",
"l 	c #595959",
"m 	c #565A5D",
"n 	c #535C64",
"o 	c #505F6B",
"p 	c #213748",
"q 	c #06253C",
"r 	c #032744",
"s 	c #022E50",
"t 	c #03345A",
"u 	c #03365E",
"v 	c #032F50",
"w 	c #072D4B",
"x 	c #204058",
"y 	c #4A6377",
"z 	c #4E606F",
"A 	c #525E67",
"B 	c #555B60",
"C 	c #585959",
"D 	c #535353",
"E 	c #525355",
"F 	c #4F565B",
"G 	c #4B5965",
"H 	c #203648",
"I 	c #04233B",
"J 	c #032D4D",
"K 	c #033A65",
"L 	c #034679",
"M 	c #034E88",
"N 	c #04528F",
"O 	c #04508A",
"P 	c #03497F",
"Q 	c #043C69",
"R 	c #073152",
"S 	c #20425D",
"T 	c #455F73",
"U 	c #495B69",
"V 	c #4D5860",
"W 	c #505558",
"X 	c #4D4D4D",
"Y 	c #4A4F52",
"Z 	c #47525B",
"` 	c #304453",
" .	c #0A273D",
"..	c #032E4F",
"+.	c #033F6E",
"@.	c #04528E",
"#.	c #0461A8",
"$.	c #046AB7",
"%.	c #046CBB",
"&.	c #0468B4",
"*.	c #0460A8",
"=.	c #045594",
"-.	c #054474",
";.	c #0E395B",
">.	c #2D4E68",
",.	c #41586B",
"'.	c #45545F",
").	c #495056",
"!.	c #4C4D4E",
"~.	c #474747",
"{.	c #464748",
"].	c #434A50",
"^.	c #404F5B",
"/.	c #1C3447",
"(.	c #052B48",
"_.	c #033C67",
":.	c #045390",
"<.	c #0467B3",
"[.	c #3E94D7",
"}.	c #5B9DD2",
"|.	c #257CBE",
"1.	c #0162AD",
"2.	c #0361A9",
"3.	c #0460A7",
"4.	c #045695",
"5.	c #0A4470",
"6.	c #1E4664",
"7.	c #3A576D",
"8.	c #3E5160",
"9.	c #424C54",
"0.	c #45494C",
"a.	c #020202",
"b.	c #020304",
"c.	c #020B12",
"d.	c #031421",
"e.	c #0C293F",
"f.	c #043255",
"g.	c #034A80",
"h.	c #0462AB",
"i.	c #2282CB",
"j.	c #82B7DE",
"k.	c #85BBE3",
"l.	c #54A1DC",
"m.	c #006EC1",
"n.	c #005FA6",
"o.	c #025798",
"p.	c #045CA0",
"q.	c #074F87",
"r.	c #134063",
"s.	c #03253F",
"t.	c #03192A",
"u.	c #020F19",
"v.	c #02070A",
"w.	c #040404",
"x.	c #040709",
"y.	c #040F17",
"z.	c #041828",
"A.	c #102F47",
"B.	c #033861",
"C.	c #03528E",
"D.	c #046AB8",
"E.	c #1171BA",
"F.	c #5DA4DA",
"G.	c #409EE6",
"H.	c #1A91EC",
"I.	c #007CDB",
"J.	c #0068B6",
"K.	c #005392",
"L.	c #03589A",
"M.	c #045593",
"N.	c #1E4E73",
"O.	c #052A46",
"P.	c #051D31",
"Q.	c #04131E",
"R.	c #040A0E",
"S.	c #060606",
"T.	c #06090C",
"U.	c #061119",
"V.	c #061B2C",
"W.	c #14344D",
"X.	c #033B68",
"Y.	c #046BB9",
"Z.	c #0166B2",
"`.	c #0E74BF",
" +	c #007BD9",
".+	c #0085EA",
"++	c #0076D1",
"@+	c #0060A8",
"#+	c #00508E",
"$+	c #035695",
"%+	c #25577D",
"&+	c #072C49",
"*+	c #062033",
"=+	c #061622",
"-+	c #060D12",
";+	c #090909",
">+	c #090C0E",
",+	c #09131C",
"'+	c #091D2D",
")+	c #193952",
"!+	c #053C67",
"~+	c #045492",
"{+	c #0160A9",
"]+	c #006CBE",
"^+	c #007BD8",
"/+	c #0080E1",
"(+	c #0076CF",
"_+	c #0061AB",
":+	c #004B84",
"<+	c #035492",
"[+	c #065592",
"}+	c #26577D",
"|+	c #092E4B",
"1+	c #092236",
"2+	c #091824",
"3+	c #090F14",
"4+	c #0C0C0C",
"5+	c #0B0E0F",
"6+	c #0B151D",
"7+	c #0B1E2D",
"8+	c #1C3950",
"9+	c #0D3E64",
"0+	c #035FA6",
"a+	c #005CA1",
"b+	c #0064B0",
"c+	c #0067B5",
"d+	c #00508C",
"e+	c #004579",
"f+	c #0F568E",
"g+	c #215074",
"h+	c #0B2E48",
"i+	c #0B2335",
"j+	c #0B1923",
"k+	c #0B1116",
"l+	c #0E0E0E",
"m+	c #0D0F0F",
"n+	c #0D151C",
"o+	c #0D1E2B",
"p+	c #163044",
"q+	c #1F4665",
"r+	c #054576",
"s+	c #045FA6",
"t+	c #025595",
"u+	c #004E8B",
"v+	c #004982",
"w+	c #01457A",
"x+	c #034F8A",
"y+	c #245C89",
"z+	c #174162",
"A+	c #0D2B43",
"B+	c #0D2232",
"C+	c #0D1922",
"D+	c #0D1114",
"E+	c #121212",
"F+	c #111212",
"G+	c #11171C",
"H+	c #111E29",
"I+	c #102637",
"J+	c #22425B",
"K+	c #1F4F72",
"L+	c #05497E",
"M+	c #045C9F",
"N+	c #045595",
"O+	c #065491",
"P+	c #1F5E90",
"Q+	c #245276",
"R+	c #0F334F",
"S+	c #102A3F",
"T+	c #11212E",
"U+	c #111A20",
"V+	c #111415",
"W+	c #151515",
"X+	c #14171A",
"Y+	c #141D24",
"Z+	c #132432",
"`+	c #122C40",
" @	c #284A64",
".@	c #2C5B7E",
"+@	c #104E7E",
"@@	c #054F87",
"#@	c #04538F",
"$@	c #055592",
"%@	c #0F578F",
"&@	c #2A638F",
"*@	c #285679",
"=@	c #113755",
"-@	c #122F46",
";@	c #132737",
">@	c #14202A",
",@	c #14191E",
"'@	c #141515",
")@	c #181818",
"!@	c #171C21",
"~@	c #16222B",
"{@	c #162836",
"]@	c #152F43",
"^@	c #20415B",
"/@	c #325A78",
"(@	c #406D90",
"_@	c #49799E",
":@	c #4879A0",
"<@	c #3E6F94",
"[@	c #305F84",
"}@	c #204A6B",
"|@	c #143853",
"1@	c #153248",
"2@	c #152B3C",
"3@	c #162530",
"4@	c #171F25",
"5@	c #17191B",
"6@	c #1B1B1B",
"7@	c #1A1C1D",
"8@	c #1A2025",
"9@	c #19252E",
"0@	c #182A38",
"a@	c #182F41",
"b@	c #17344A",
"c@	c #163852",
"d@	c #163B57",
"e@	c #163B58",
"f@	c #163954",
"g@	c #17364D",
"h@	c #173246",
"i@	c #182D3C",
"j@	c #192733",
"k@	c #192229",
"l@	c #1A1E21",
"m@	c #1F1F1F",
"n@	c #1E2022",
"o@	c #1E2428",
"p@	c #1D2830",
"q@	c #1C2B36",
"r@	c #1C2F3D",
"s@	c #1B3143",
"t@	c #1B3447",
"u@	c #1B3448",
"v@	c #1B3345",
"w@	c #1B3041",
"x@	c #1C2D3A",
"y@	c #1D2933",
"z@	c #1D252C",
"A@	c #1E2225",
"B@	c #222222",
"C@	c #212222",
"D@	c #212528",
"E@	c #20272D",
"F@	c #202A32",
"G@	c #1F2C36",
"H@	c #1F2E39",
"I@	c #1F2E3B",
"J@	c #1F2E3A",
"K@	c #1F2D37",
"L@	c #1F2B35",
"M@	c #20292F",
"N@	c #21262A",
"O@	c #212325",
"P@	c #252525",
"Q@	c #242526",
"R@	c #24282A",
"S@	c #24282C",
"T@	c #23292E",
"U@	c #232A30",
"V@	c #232A2F",
"W@	c #242628",
"X@	c #242525",
"Y@	c #282828",
"Z@	c #272828",
"`@	c #2B2B2B",
" #	c #171717",
". . . . . . . . . . . . . . . . . . . . . . . . . . ",
"+ + + + + + + + + + + + + + + + + + + + + + + + + + ",
"@ @ @ @ @ @ @ @ @ # # $ % $ & # * @ @ @ @ @ @ @ @ @ ",
"= = = = = = = - ; > , ' ' ' ) ! ~ { = = = = = = = = ",
"] ] ] ] ] ] ^ / ( _ : < [ [ } | 1 2 3 4 ] ] ] ] ] ] ",
"5 5 5 5 5 6 7 8 9 0 a b c d e f g h i j k 5 5 5 5 5 ",
"l l l l m n o p q r s t u t v w x y z A B C l l l l ",
"D D D E F G H I J K L M N O P Q R S T U V W D D D D ",
"X X X Y Z `  ...+.@.#.$.%.&.*.=.-.;.>.,.'.).!.X X X ",
"~.~.{.].^./.(._.:.<.[.}.|.1.2.3.4.5.6.7.8.9.0.~.~.~.",
"a.a.b.c.d.e.f.g.h.i.j.k.l.m.n.o.p.q.r.s.t.u.v.a.a.a.",
"w.w.x.y.z.A.B.C.D.E.F.G.H.I.J.K.L.M.N.O.P.Q.R.w.w.w.",
"S.S.T.U.V.W.X.4.Y.Z.`. +.+++@+#+$+4.%+&+*+=+-+S.S.S.",
";+;+>+,+'+)+!+~+<.{+]+^+/+(+_+:+<+[+}+|+1+2+3+;+;+;+",
"4+4+5+6+7+8+9+M #.0+a+b+c+@+d+e+=.f+g+h+i+j+k+4+4+4+",
"l+l+m+n+o+p+q+r+4.s+t+#+u+v+w+x+[+y+z+A+B+C+D+l+l+l+",
"E+E+F+G+H+I+J+K+L+=.M+L.$+<+N+O+P+Q+R+S+T+U+V+E+E+E+",
"W+W+W+X+Y+Z+`+ @.@+@@@#@M.$@%@&@*@=@-@;@>@,@'@W+W+W+",
")@)@)@)@!@~@{@]@^@/@(@_@:@<@[@}@|@1@2@3@4@5@)@)@)@)@",
"6@6@6@6@7@8@9@0@a@b@c@d@e@e@f@g@h@i@j@k@l@6@6@6@6@6@",
"m@m@m@m@m@n@o@p@q@r@s@t@u@u@v@w@x@y@z@A@m@m@m@m@m@m@",
"B@B@B@B@B@B@C@D@E@F@G@H@I@J@K@L@M@N@O@B@B@B@B@B@B@B@",
"P@P@P@P@P@P@P@P@Q@R@S@T@U@V@T@R@W@X@P@P@P@P@P@P@P@P@",
"Y@Y@Y@Y@Y@Y@Y@Y@Y@Y@Y@Z@Z@Z@Y@Y@Y@Y@Y@Y@Y@Y@Y@Y@Y@Y@",
"`@`@`@`@`@`@`@`@`@`@`@`@`@`@`@`@`@`@`@`@`@`@`@`@`@`@",
" # # # # # # # # # # # # # # # # # # # # # # # # # #"};
