/* XPM */
static char * maximize_active_xpm[] = {
"26 26 170 2",
"  	c None",
". 	c #000000",
"+ 	c #959595",
"@ 	c #ABABAB",
"# 	c #8E8E8E",
"$ 	c #646464",
"% 	c #5E5E5E",
"& 	c #3F3F3F",
"* 	c #1D1D1D",
"= 	c #0A0A0A",
"- 	c #020202",
"; 	c #595959",
"> 	c #262626",
", 	c #060808",
"' 	c #010305",
") 	c #00060A",
"! 	c #000911",
"~ 	c #000A12",
"{ 	c #00080E",
"] 	c #010507",
"^ 	c #070809",
"/ 	c #272727",
"( 	c #535353",
"_ 	c #252525",
": 	c #030405",
"< 	c #01070B",
"[ 	c #000F1B",
"} 	c #00192C",
"| 	c #00213A",
"1 	c #002441",
"2 	c #00223C",
"3 	c #001B2F",
"4 	c #020F1A",
"5 	c #060809",
"6 	c #282828",
"7 	c #4D4D4D",
"8 	c #373737",
"9 	c #01080D",
"0 	c #001423",
"a 	c #002643",
"b 	c #003761",
"c 	c #004375",
"d 	c #00477C",
"e 	c #004173",
"f 	c #00355E",
"g 	c #002745",
"h 	c #031624",
"i 	c #101113",
"j 	c #393939",
"k 	c #474747",
"l 	c #202020",
"m 	c #04080A",
"n 	c #00121F",
"o 	c #002846",
"p 	c #004071",
"q 	c #6595BA",
"r 	c #6CA0C9",
"s 	c #2A79B5",
"t 	c #00599D",
"u 	c #004B84",
"v 	c #003B67",
"w 	c #0A1720",
"x 	c #0D0D0D",
"y 	c #020B12",
"z 	c #001F36",
"A 	c #003A66",
"B 	c #3575A6",
"C 	c #90BBDB",
"D 	c #88BCE3",
"E 	c #55A2DC",
"F 	c #006EC1",
"G 	c #005DA2",
"H 	c #00477D",
"I 	c #003359",
"J 	c #052135",
"K 	c #181818",
"L 	c #040404",
"M 	c #121212",
"N 	c #010F1B",
"O 	c #002845",
"P 	c #004478",
"Q 	c #1468A8",
"R 	c #60A5DA",
"S 	c #409EE6",
"T 	c #1A91EC",
"U 	c #007CDB",
"V 	c #0068B6",
"W 	c #004F8C",
"X 	c #003863",
"Y 	c #012540",
"Z 	c #292929",
"` 	c #060606",
" .	c #001221",
"..	c #002B4C",
"+.	c #004579",
"@.	c #005EA5",
"#.	c #0F74BF",
"$.	c #007BD9",
"%.	c #0085EA",
"&.	c #0076D1",
"*.	c #0060A8",
"=.	c #00508D",
"-.	c #003964",
";.	c #002541",
">.	c #353535",
",.	c #090909",
"'.	c #1E1E1E",
").	c #031421",
"!.	c #002949",
"~.	c #004070",
"{.	c #005699",
"].	c #006CBD",
"^.	c #007BD8",
"/.	c #0080E1",
"(.	c #0076CF",
"_.	c #0061AB",
":.	c #004A82",
"<.	c #00345C",
"[.	c #04243D",
"}.	c #363636",
"|.	c #0C0C0C",
"1.	c #212121",
"2.	c #0F1A23",
"3.	c #00223D",
"4.	c #00355D",
"5.	c #00477E",
"6.	c #00599C",
"7.	c #0064B0",
"8.	c #0067B5",
"9.	c #00508C",
"0.	c #003D6C",
"a.	c #002C4E",
"b.	c #142A3B",
"c.	c #2D2D2D",
"d.	c #0E0E0E",
"e.	c #191919",
"f.	c #282A2D",
"g.	c #031C2E",
"h.	c #002847",
"i.	c #004376",
"j.	c #004B85",
"k.	c #004D88",
"l.	c #003C6B",
"m.	c #003054",
"n.	c #03253E",
"o.	c #343B42",
"p.	c #2A2A2A",
"q.	c #293237",
"r.	c #031E33",
"s.	c #002F53",
"t.	c #00365E",
"u.	c #003258",
"v.	c #2E3B46",
"w.	c #323232",
"x.	c #151515",
"y.	c #3C4246",
"z.	c #142736",
"A.	c #022036",
"B.	c #02233A",
"C.	c #142B3D",
"D.	c #3F464B",
"E.	c #434343",
"F.	c #5B5B5B",
"G.	c #6B6B6B",
"H.	c #454545",
"I.	c #1B1B1B",
"J.	c #1F1F1F",
"K.	c #222222",
"L.	c #2B2B2B",
"M.	c #171717",
". . . . . . . . . . . . . . . . . . . . . . . . . . ",
"+ + + + + + + + + + + + + + + + + + + + + + + + + + ",
"@ @ @ @ @ @ @ @ @ @ @ @ @ @ @ @ @ @ @ @ @ @ @ @ @ @ ",
"# # # # # # # # # # # # # # # # # # # # # # # # # # ",
"$ $ $ $ $ $ $ $ $ $ $ $ $ $ $ $ $ $ $ $ $ $ $ $ $ $ ",
"% % % % % % % % & * = - - = * & % % % % % % % % % % ",
"; ; ; ; ; ; ; > , ' ) ! ~ { ] ^ / ; ; ; ; ; ; ; ; ; ",
"( ( ( ( ( ( _ : < [ } | 1 2 3 4 5 6 ( ( ( ( ( ( ( ( ",
"7 7 7 7 7 8 = 9 0 a b c d e f g h i j 7 7 7 7 7 7 7 ",
"k k k k k l m n o p q r s t u v o w / k k k k k k k ",
"- - - - - x y z A B C D E F G H I J K - - - - - - - ",
"L L L L L M N O P Q R S T U V W X Y Z L L L L L L L ",
"` ` ` ` ` K  ...+.@.#.$.%.&.*.=.-.;.>.` ` ` ` ` ` ` ",
",.,.,.,.,.'.).!.~.{.].^./.(._.:.<.[.}.,.,.,.,.,.,.,.",
"|.|.|.|.|.1.2.3.4.5.6.7.8.*.9.0.a.b.c.|.|.|.|.|.|.|.",
"d.d.d.d.d.e.f.g.h.b i.j.k.5.l.m.n.o.* d.d.d.d.d.d.d.",
"M M M M M M p.q.r.a s.<.t.u...n.v.w.M M M M M M M M ",
"x.x.x.x.x.x.x.w.y.z.A.| 2 B.C.D.8 x.x.x.x.x.x.x.x.x.",
"K K K K K K K K 6 E.F.G.G.F.H.p.K K K K K K K K K K ",
"I.I.I.I.I.I.I.I.I.I.I.I.I.I.I.I.I.I.I.I.I.I.I.I.I.I.",
"J.J.J.J.J.J.J.J.J.J.J.J.J.J.J.J.J.J.J.J.J.J.J.J.J.J.",
"K.K.K.K.K.K.K.K.K.K.K.K.K.K.K.K.K.K.K.K.K.K.K.K.K.K.",
"_ _ _ _ _ _ _ _ _ _ _ _ _ _ _ _ _ _ _ _ _ _ _ _ _ _ ",
"6 6 6 6 6 6 6 6 6 6 6 6 6 6 6 6 6 6 6 6 6 6 6 6 6 6 ",
"L.L.L.L.L.L.L.L.L.L.L.L.L.L.L.L.L.L.L.L.L.L.L.L.L.L.",
"M.M.M.M.M.M.M.M.M.M.M.M.M.M.M.M.M.M.M.M.M.M.M.M.M.M."};
