/* XPM */
static char * menu_active_xpm[] = {
"19 15 19 1",
" 	c None",
".	c #5E5E5E",
"+	c #595959",
"@	c #535353",
"#	c #4D4D4D",
"$	c #444444",
"%	c #464646",
"&	c #474747",
"*	c #151515",
"=	c #0E0E0E",
"-	c #030303",
";	c #020202",
">	c #040404",
",	c #060606",
"'	c #090909",
")	c #0C0C0C",
"!	c #121212",
"~	c #181818",
"{	c #1B1B1B",
"...................",
"+++++++++++++++++++",
"@@@@@@@@@@@@@@@@@@@",
"###################",
"$%&&&&&&&&&&&&&&&&&",
"*==-;;;;;;;;;;;;;;;",
">>>>>>>>>>>>>>>>>>>",
",,,,,,,,,,,,,,,,,,,",
"'''''''''''''''''''",
")))))))))))))))))))",
"===================",
"!!!!!!!!!!!!!!!!!!!",
"*******************",
"~~~~~~~~~~~~~~~~~~~",
"{{{{{{{{{{{{{{{{{{{"};
