/* XPM */
static char * right_active_xpm[] = {
"7 980 66 1",
" 	c None",
".	c #000000",
"+	c #686868",
"@	c #383838",
"#	c #373737",
"$	c #242424",
"%	c #888888",
"&	c #666666",
"*	c #676767",
"=	c #171717",
"-	c #4E4E4E",
";	c #0F0F0F",
">	c #067BC5",
",	c #0075BF",
"'	c #0C0C0C",
")	c #0967A3",
"!	c #004B7A",
"~	c #1C80C0",
"{	c #0E0E0E",
"]	c #070707",
"^	c #0774B9",
"/	c #0A3D5E",
"(	c #19415A",
"_	c #005083",
":	c #1C1C1C",
"<	c #00568D",
"[	c #3E5E71",
"}	c #001C2E",
"|	c #196798",
"1	c #282828",
"2	c #2775A6",
"3	c #001A2A",
"4	c #243E4E",
"5	c #004E7F",
"6	c #141414",
"7	c #314B5B",
"8	c #3A87B9",
"9	c #748E9E",
"0	c #607A8A",
"a	c #7790A1",
"b	c #1A6799",
"c	c #2B4455",
"d	c #354F5F",
"e	c #3986B8",
"f	c #136192",
"g	c #264050",
"h	c #0C598B",
"i	c #2D495B",
"j	c #001F33",
"k	c #126395",
"l	c #466E87",
"m	c #154969",
"n	c #107DC2",
"o	c #131313",
"p	c #005C96",
"q	c #0E537E",
"r	c #09659F",
"s	c #262626",
"t	c #0678C1",
"u	c #4075FF",
"v	c #5E5E5E",
"w	c #202020",
"x	c #343434",
"y	c #060606",
"z	c #191919",
"A	c #161616",
".+@##$%",
".&###$%",
".&###$%",
".&###$%",
".&###$%",
".&###$%",
".&###$%",
".&###$%",
".&###$%",
".&###$%",
".*###$%",
".+@##$%",
".&###$%",
".&###$%",
".&###$%",
".&###$%",
".&###$%",
".&###$%",
".&###$%",
".&###$%",
".&###$%",
".*###$%",
".+@##$%",
".&###$%",
".&###$%",
".&###$%",
".&###$%",
".&###$%",
".&###$%",
".&###$%",
".&###$%",
".&###$%",
".*###$%",
".+@##$%",
".&###$%",
".&###$%",
".&###$%",
".&###$%",
".&###$%",
".&###$%",
".&###$%",
".&###$%",
".&###$%",
".*###$%",
".+@##$%",
".&###$%",
".&###$%",
".&###$%",
".&###$%",
".&###$%",
".&###$%",
".&###$%",
".&###$%",
".&###$%",
".*###$%",
".+@##$%",
".&###$%",
".&###$%",
".&###$%",
".&###$%",
".&###$%",
".&###$%",
".&###$%",
".&###$%",
".&###$%",
".*###$%",
".+@##$%",
".&###$%",
".&###$%",
".&###$%",
".&###$%",
".&###$%",
".&###$%",
".&###$%",
".&###$%",
".&###$%",
".*###$%",
".+@##$%",
".&###$%",
".&###$%",
".&###$%",
".&###$%",
".&###$%",
".&###$%",
".&###$%",
".&###$%",
".&###$%",
".*###$%",
".+@##$%",
".&###$%",
".&###$%",
".&###$%",
".&###$%",
".&###$%",
".&###$%",
".&###$%",
".&###$%",
".&###$%",
".*###$%",
".+@##$%",
".&###$%",
".&###$%",
".&###$%",
".&###$%",
".&###$%",
".&###$%",
".&###$%",
".&###$%",
".&###$%",
".*###$%",
".+@##$%",
".&###$%",
".&###$%",
".&###$%",
".&###$%",
".&###$%",
".&###$%",
".&###$%",
".&###$%",
".&###$%",
".*###$%",
".+@##$%",
".&###$%",
".&###$%",
".&###$%",
".&###$%",
".&###$%",
".&###$%",
".&###$%",
".&###$%",
".&###$%",
".*###$%",
".+@##$%",
".&###$%",
".&###$%",
".&###$%",
".&###$%",
".&###$%",
".&###$%",
".&###$%",
".&###$%",
".&###$%",
".*###$%",
".+@##$%",
".&###$%",
".&###$%",
".&###$%",
".&###$%",
".&###$%",
".&###$%",
".&###$%",
".&###$%",
".&###$%",
".*###$%",
".+@##$%",
".&###$%",
".&###$%",
".&###$%",
".&###$%",
".&###$%",
".&###$%",
".&###$%",
".&###$%",
".&###$%",
".*###$%",
".+@##$%",
".&###$%",
".&###$%",
".&###$%",
".&###$%",
".&###$%",
".&###$%",
".&###$%",
".&###$%",
".&###$%",
".*###$%",
".+@##$%",
".&###$%",
".&###$%",
".&###$%",
".&###$%",
".&###$%",
".&###$%",
".&###$%",
".&###$%",
".&###$%",
".*###$%",
".+@##$%",
".&###$%",
".&###$%",
".&###$%",
".&###$%",
".&###$%",
".&###$%",
".&###$%",
".&###$%",
".&###$%",
".*###$%",
".+@##$%",
".&###$%",
".&###$%",
".&###$%",
".&###$%",
".&###$%",
".&###$%",
".&###$%",
".&###$%",
".&###$%",
".*###$%",
".+@##$%",
".&###$%",
".&###$%",
".&###$%",
".&###$%",
".&###$%",
".&###$%",
".&###$%",
".&###$%",
".&###$%",
".*###$%",
".+@##$%",
".&###$%",
".&###$%",
".&###$%",
".&###$%",
".&###$%",
".&###$%",
".&###$%",
".&###$%",
".&###$%",
".*###$%",
".+@##$%",
".&###$%",
".&###$%",
".&###$%",
".&###$%",
".&###$%",
".&###$%",
".&###$%",
".&###$%",
".&###$%",
".*###$%",
".+@##$%",
".&###$%",
".&###$%",
".&###$%",
".&###$%",
".&###$%",
".&###$%",
".&###$%",
".&###$%",
".&###$%",
".*###$%",
".+@##$%",
".&###$%",
".&###$%",
".&###$%",
".&###$%",
".&###$%",
".&###$%",
".&###$%",
".&###$%",
".&###$%",
".&###$%",
".&#=...",
".&=.-..",
".=;>,..",
"'.)!~{{",
"]^/(_$$",
":<[}|11",
".2345..",
"6573866",
"1|90511",
"15a3b11",
".83c5..",
"65d3866",
"1ba0511",
"15a3b11",
".83c5..",
"65d3866",
"1ba0511",
"15a3b11",
".83c5..",
"6ba0566",
"15a3b11",
"183c511",
".5d38..",
"6ba0566",
"15a3b11",
"183c511",
".5d38..",
"6ba0566",
"15a3b11",
"183c511",
".5d38..",
"6ba0566",
"15a3b11",
"183c511",
".5d3e..",
"6ba0566",
"1593f11",
"1e3gh11",
".5ij<..",
"6klmnoo",
"1pqr=::",
"s,t....",
".uvwx..",
"y.zA#$%",
"..A##$%",
".&###$%",
".&###$%",
".&###$%",
".&###$%",
".&###$%",
".&###$%",
".*###$%",
".+@##$%",
".&###$%",
".&###$%",
".&###$%",
".&###$%",
".&###$%",
".&###$%",
".&###$%",
".&###$%",
".&###$%",
".*###$%",
".+@##$%",
".&###$%",
".&###$%",
".&###$%",
".&###$%",
".&###$%",
".&###$%",
".&###$%",
".&###$%",
".&###$%",
".*###$%",
".+@##$%",
".&###$%",
".&###$%",
".&###$%",
".&###$%",
".&###$%",
".&###$%",
".&###$%",
".&###$%",
".&###$%",
".&###$%",
".&###$%",
".&###$%",
".*###$%",
".+@##$%",
".&###$%",
".&###$%",
".&###$%",
".&###$%",
".&###$%",
".&###$%",
".&###$%",
".&###$%",
".&###$%",
".*###$%",
".+@##$%",
".&###$%",
".&###$%",
".&###$%",
".&###$%",
".&###$%",
".&###$%",
".&###$%",
".&###$%",
".&###$%",
".*###$%",
".+@##$%",
".&###$%",
".&###$%",
".&###$%",
".&###$%",
".&###$%",
".&###$%",
".&###$%",
".&###$%",
".&###$%",
".*###$%",
".+@##$%",
".&###$%",
".&###$%",
".&###$%",
".&###$%",
".&###$%",
".&###$%",
".&###$%",
".&###$%",
".&###$%",
".*###$%",
".+@##$%",
".&###$%",
".&###$%",
".&###$%",
".&###$%",
".&###$%",
".&###$%",
".&###$%",
".&###$%",
".&###$%",
".*###$%",
".+@##$%",
".&###$%",
".&###$%",
".&###$%",
".&###$%",
".&###$%",
".&###$%",
".&###$%",
".&###$%",
".&###$%",
".*###$%",
".+@##$%",
".&###$%",
".&###$%",
".&###$%",
".&###$%",
".&###$%",
".&###$%",
".&###$%",
".&###$%",
".&###$%",
".*###$%",
".+@##$%",
".&###$%",
".&###$%",
".&###$%",
".&###$%",
".&###$%",
".&###$%",
".&###$%",
".&###$%",
".&###$%",
".*###$%",
".+@##$%",
".&###$%",
".&###$%",
".&###$%",
".&###$%",
".&###$%",
".&###$%",
".&###$%",
".&###$%",
".&###$%",
".*###$%",
".+@##$%",
".&###$%",
".&###$%",
".&###$%",
".&###$%",
".&###$%",
".&###$%",
".&###$%",
".&###$%",
".&###$%",
".*###$%",
".+@##$%",
".&###$%",
".&###$%",
".&###$%",
".&###$%",
".&###$%",
".&###$%",
".&###$%",
".&###$%",
".&###$%",
".*###$%",
".+@##$%",
".&###$%",
".&###$%",
".&###$%",
".&###$%",
".&###$%",
".&###$%",
".&###$%",
".&###$%",
".&###$%",
".*###$%",
".+@##$%",
".&###$%",
".&###$%",
".&###$%",
".&###$%",
".&###$%",
".&###$%",
".&###$%",
".&###$%",
".&###$%",
".*###$%",
".+@##$%",
".&###$%",
".&###$%",
".&###$%",
".&###$%",
".&###$%",
".&###$%",
".&###$%",
".&###$%",
".&###$%",
".*###$%",
".+@##$%",
".&###$%",
".&###$%",
".&###$%",
".&###$%",
".&###$%",
".&###$%",
".&###$%",
".&###$%",
".&###$%",
".*###$%",
".+@##$%",
".&###$%",
".&###$%",
".&###$%",
".&###$%",
".&###$%",
".&###$%",
".&###$%",
".&###$%",
".&###$%",
".*###$%",
".+@##$%",
".&###$%",
".&###$%",
".&###$%",
".&###$%",
".&###$%",
".&###$%",
".&###$%",
".&###$%",
".&###$%",
".*###$%",
".+@##$%",
".&###$%",
".&###$%",
".&###$%",
".&###$%",
".&###$%",
".&###$%",
".&###$%",
".&###$%",
".&###$%",
".*###$%",
".+@##$%",
".&###$%",
".&###$%",
".&###$%",
".&###$%",
".&###$%",
".&###$%",
".&###$%",
".&###$%",
".&###$%",
".*###$%",
".+@##$%",
".&###$%",
".&###$%",
".&###$%",
".&###$%",
".&###$%",
".&###$%",
".&###$%",
".&###$%",
".&###$%",
".*###$%",
".+@##$%",
".&###$%",
".&###$%",
".&###$%",
".&###$%",
".&###$%",
".&###$%",
".&###$%",
".&###$%",
".&###$%",
".*###$%",
".+@##$%",
".&###$%",
".&###$%",
".&###$%",
".&###$%",
".&###$%",
".&###$%",
".&###$%",
".&###$%",
".&###$%",
".*###$%",
".+@##$%",
".&###$%",
".&###$%",
".&###$%",
".&###$%",
".&###$%",
".*###$%",
".+@##$%",
".&###$%",
".&###$%",
".&###$%",
".&###$%",
".&###$%",
".&###$%",
".&###$%",
".&###$%",
".&###$%",
".*###$%",
".+@##$%",
".&###$%",
".&###$%",
".&###$%",
".&###$%",
".&###$%",
".&###$%",
".&###$%",
".&###$%",
".&###$%",
".*###$%",
".+@##$%",
".&###$%",
".&###$%",
".&###$%",
".&###$%",
".&###$%",
".&###$%",
".&###$%",
".&###$%",
".&###$%",
".*###$%",
".+@##$%",
".&###$%",
".&###$%",
".&###$%",
".&###$%",
".&###$%",
".&###$%",
".&###$%",
".&###$%",
".&###$%",
".*###$%",
".+@##$%",
".&###$%",
".&###$%",
".&###$%",
".&###$%",
".&###$%",
".&###$%",
".&###$%",
".&###$%",
".&###$%",
".*###$%",
".+@##$%",
".&###$%",
".&###$%",
".&###$%",
".&###$%",
".&###$%",
".&###$%",
".&###$%",
".&###$%",
".&###$%",
".*###$%",
".+@##$%",
".&###$%",
".&###$%",
".&###$%",
".&###$%",
".&###$%",
".&###$%",
".&###$%",
".&###$%",
".&###$%",
".*###$%",
".+@##$%",
".&###$%",
".&###$%",
".&###$%",
".&###$%",
".&###$%",
".&###$%",
".&###$%",
".&###$%",
".&###$%",
".*###$%",
".+@##$%",
".&###$%",
".&###$%",
".&###$%",
".&###$%",
".&###$%",
".&###$%",
".&###$%",
".&###$%",
".&###$%",
".*###$%",
".+@##$%",
".&###$%",
".&###$%",
".&###$%",
".&###$%",
".&###$%",
".&###$%",
".&###$%",
".&###$%",
".&###$%",
".*###$%",
".+@##$%",
".&###$%",
".&###$%",
".&###$%",
".&###$%",
".&###$%",
".&###$%",
".&###$%",
".&###$%",
".&###$%",
".*###$%",
".+@##$%",
".&###$%",
".&###$%",
".&###$%",
".&###$%",
".&###$%",
".&###$%",
".&###$%",
".&###$%",
".&###$%",
".*###$%",
".+@##$%",
".&###$%",
".&###$%",
".&###$%",
".&###$%",
".&###$%",
".&###$%",
".&###$%",
".&###$%",
".&###$%",
".*###$%",
".+@##$%",
".&###$%",
".&###$%",
".&###$%",
".&###$%",
".&###$%",
".&###$%",
".&###$%",
".&###$%",
".&###$%",
".*###$%",
".+@##$%",
".&###$%",
".&###$%",
".&###$%",
".&###$%",
".&###$%",
".&###$%",
".&###$%",
".&###$%",
".&###$%",
".*###$%",
".+@##$%",
".&###$%",
".&###$%",
".&###$%",
".&###$%",
".&###$%",
".&###$%",
".&###$%",
".&###$%",
".&###$%",
".*###$%",
".+@##$%",
".&###$%",
".&###$%",
".&###$%",
".&###$%",
".&###$%",
".&###$%",
".&###$%",
".&###$%",
".&###$%",
".*###$%",
".+@##$%",
".&###$%",
".&###$%",
".&###$%",
".&###$%",
".&###$%",
".&###$%",
".&###$%",
".&###$%",
".&###$%",
".*###$%",
".+@##$%",
".&###$%",
".&###$%",
".&###$%",
".&###$%",
".&###$%",
".&###$%",
".&###$%",
".&###$%",
".&###$%",
".*###$%",
".+@##$%",
".&###$%",
".&###$%",
".&###$%",
".&###$%",
".&###$%",
".&###$%",
".&###$%",
".&###$%",
".&###$%",
".*###$%",
".+@##$%",
".&###$%",
".&###$%",
".&###$%",
".&###$%",
".&###$%",
".&###$%",
".&###$%",
".&###$%",
".&###$%",
".*###$%",
".+@##$%",
".&###$%",
".&###$%",
".&###$%",
".&###$%",
".&###$%",
".&###$%",
".&###$%",
".&###$%",
".&###$%",
".*###$%",
".+@##$%",
".&###$%",
".&###$%",
".&###$%",
".&###$%",
".&###$%",
".&###$%",
".&###$%",
".&###$%",
".&###$%",
".*###$%",
".+@##$%",
".&###$%",
".&###$%",
".*###$%",
".+@##$%",
".&###$%",
".&###$%",
".&###$%",
".&###$%",
".&###$%",
".&###$%",
".&###$%",
".&###$%",
".&###$%",
".*###$%",
".+@##$%",
".&###$%",
".&###$%",
".&###$%",
".&###$%",
".&###$%",
".&###$%",
".&###$%",
".&###$%",
".&###$%",
".*###$%",
".+@##$%",
".&###$%",
".&###$%",
".&###$%",
".&###$%",
".&###$%",
".&###$%",
".&###$%",
".&###$%",
".&###$%",
".*###$%",
".+@##$%",
".&###$%",
".&###$%",
".&###$%",
".&###$%",
".&###$%",
".&###$%",
".&###$%",
".&###$%",
".&###$%",
".*###$%",
".+@##$%",
".&###$%",
".&###$%",
".&###$%",
".&###$%",
".&###$%",
".&###$%",
".&###$%",
".&###$%",
".&###$%",
".*###$%",
".+@##$%",
".&###$%",
".&###$%",
".&###$%",
".&###$%",
".&###$%",
".&###$%",
".&###$%",
".&###$%",
".&###$%",
".*###$%",
".+@##$%",
".&###$%",
".&###$%",
".&###$%",
".&###$%",
".&###$%",
".&###$%",
".&###$%",
".&###$%",
".&###$%",
".*###$%",
".+@##$%",
".&###$%",
".&###$%",
".&###$%",
".&###$%",
".&###$%",
".&###$%",
".&###$%",
".&###$%",
".&###$%",
".*###$%",
".+@##$%",
".&###$%",
".&###$%",
".&###$%",
".&###$%",
".&###$%",
".&###$%",
".&###$%",
".&###$%",
".&###$%",
".*###$%",
".+@##$%",
".&###$%",
".&###$%",
".&###$%",
".&###$%",
".&###$%",
".&###$%",
".&###$%",
".&###$%",
".&###$%",
".*###$%",
".+@##$%",
".&###$%",
".&###$%",
".&###$%",
".&###$%",
".&###$%",
".&###$%",
".&###$%",
".&###$%",
".&###$%",
".*###$%",
".+@##$%"};
