/* XPM */
static char * right_inactive_xpm[] = {
"7 980 37 1",
" 	c None",
".	c #000000",
"+	c #686868",
"@	c #383838",
"#	c #373737",
"$	c #242424",
"%	c #888888",
"&	c #666666",
"*	c #676767",
"=	c #171717",
"-	c #4E4E4E",
";	c #0F0F0F",
">	c #222222",
",	c #0C0C0C",
"'	c #323232",
")	c #0E0E0E",
"!	c #070707",
"~	c #2B2B2B",
"{	c #1C1C1C",
"]	c #3B3B3B",
"^	c #737373",
"/	c #282828",
"(	c #8B8B8B",
"_	c #141414",
":	c #8E8E8E",
"<	c #333333",
"[	c #404040",
"}	c #717171",
"|	c #262626",
"1	c #131313",
"2	c #2E2E2E",
"3	c #5E5E5E",
"4	c #202020",
"5	c #343434",
"6	c #060606",
"7	c #191919",
"8	c #161616",
".+@##$%",
".&###$%",
".&###$%",
".&###$%",
".&###$%",
".&###$%",
".&###$%",
".&###$%",
".&###$%",
".&###$%",
".*###$%",
".+@##$%",
".&###$%",
".&###$%",
".&###$%",
".&###$%",
".&###$%",
".&###$%",
".&###$%",
".&###$%",
".&###$%",
".*###$%",
".+@##$%",
".&###$%",
".&###$%",
".&###$%",
".&###$%",
".&###$%",
".&###$%",
".&###$%",
".&###$%",
".&###$%",
".*###$%",
".+@##$%",
".&###$%",
".&###$%",
".&###$%",
".&###$%",
".&###$%",
".&###$%",
".&###$%",
".&###$%",
".&###$%",
".*###$%",
".+@##$%",
".&###$%",
".&###$%",
".&###$%",
".&###$%",
".&###$%",
".&###$%",
".&###$%",
".&###$%",
".&###$%",
".*###$%",
".+@##$%",
".&###$%",
".&###$%",
".&###$%",
".&###$%",
".&###$%",
".&###$%",
".&###$%",
".&###$%",
".&###$%",
".*###$%",
".+@##$%",
".&###$%",
".&###$%",
".&###$%",
".&###$%",
".&###$%",
".&###$%",
".&###$%",
".&###$%",
".&###$%",
".*###$%",
".+@##$%",
".&###$%",
".&###$%",
".&###$%",
".&###$%",
".&###$%",
".&###$%",
".&###$%",
".&###$%",
".&###$%",
".*###$%",
".+@##$%",
".&###$%",
".&###$%",
".&###$%",
".&###$%",
".&###$%",
".&###$%",
".&###$%",
".&###$%",
".&###$%",
".*###$%",
".+@##$%",
".&###$%",
".&###$%",
".&###$%",
".&###$%",
".&###$%",
".&###$%",
".&###$%",
".&###$%",
".&###$%",
".*###$%",
".+@##$%",
".&###$%",
".&###$%",
".&###$%",
".&###$%",
".&###$%",
".&###$%",
".&###$%",
".&###$%",
".&###$%",
".*###$%",
".+@##$%",
".&###$%",
".&###$%",
".&###$%",
".&###$%",
".&###$%",
".&###$%",
".&###$%",
".&###$%",
".&###$%",
".*###$%",
".+@##$%",
".&###$%",
".&###$%",
".&###$%",
".&###$%",
".&###$%",
".&###$%",
".&###$%",
".&###$%",
".&###$%",
".*###$%",
".+@##$%",
".&###$%",
".&###$%",
".&###$%",
".&###$%",
".&###$%",
".&###$%",
".&###$%",
".&###$%",
".&###$%",
".*###$%",
".+@##$%",
".&###$%",
".&###$%",
".&###$%",
".&###$%",
".&###$%",
".&###$%",
".&###$%",
".&###$%",
".&###$%",
".*###$%",
".+@##$%",
".&###$%",
".&###$%",
".&###$%",
".&###$%",
".&###$%",
".&###$%",
".&###$%",
".&###$%",
".&###$%",
".*###$%",
".+@##$%",
".&###$%",
".&###$%",
".&###$%",
".&###$%",
".&###$%",
".&###$%",
".&###$%",
".&###$%",
".&###$%",
".*###$%",
".+@##$%",
".&###$%",
".&###$%",
".&###$%",
".&###$%",
".&###$%",
".&###$%",
".&###$%",
".&###$%",
".&###$%",
".*###$%",
".+@##$%",
".&###$%",
".&###$%",
".&###$%",
".&###$%",
".&###$%",
".&###$%",
".&###$%",
".&###$%",
".&###$%",
".*###$%",
".+@##$%",
".&###$%",
".&###$%",
".&###$%",
".&###$%",
".&###$%",
".&###$%",
".&###$%",
".&###$%",
".&###$%",
".*###$%",
".+@##$%",
".&###$%",
".&###$%",
".&###$%",
".&###$%",
".&###$%",
".&###$%",
".&###$%",
".&###$%",
".&###$%",
".*###$%",
".+@##$%",
".&###$%",
".&###$%",
".&###$%",
".&###$%",
".&###$%",
".&###$%",
".&###$%",
".&###$%",
".&###$%",
".*###$%",
".+@##$%",
".&###$%",
".&###$%",
".&###$%",
".&###$%",
".&###$%",
".&###$%",
".&###$%",
".&###$%",
".&###$%",
".*###$%",
".+@##$%",
".&###$%",
".&###$%",
".&###$%",
".&###$%",
".&###$%",
".&###$%",
".&###$%",
".&###$%",
".&###$%",
".&###$%",
".&#=...",
".&=.-..",
".=;>...",
",.-.'))",
"!-.~.$$",
"{.].^//",
".'(^...",
"_.:.<__",
"/^.<.//",
"/.[.^//",
".<:^...",
"_.:.<__",
"/^.<.//",
"/.[.^//",
".<:^...",
"_.:.<__",
"/^.<.//",
"/.[.^//",
".<:^...",
"_.:.<__",
"/^.<.//",
"/.[.^//",
".<:^...",
"_.:.<__",
"/^.<.//",
"/.[.^//",
".<:^...",
"_.:.<__",
"/^.<.//",
"/.[.^//",
".<:^...",
"_.:.<__",
"/^.<.//",
"/.[.^//",
".<:^...",
"_.:.<__",
"/^.<.//",
"/.[.}//",
".<:^...",
"_.(.|11",
"/}.2={{",
"|.#....",
".|345..",
"6.78#$%",
"..8##$%",
".&###$%",
".&###$%",
".&###$%",
".&###$%",
".&###$%",
".&###$%",
".*###$%",
".+@##$%",
".&###$%",
".&###$%",
".&###$%",
".&###$%",
".&###$%",
".&###$%",
".&###$%",
".&###$%",
".&###$%",
".*###$%",
".+@##$%",
".&###$%",
".&###$%",
".&###$%",
".&###$%",
".&###$%",
".&###$%",
".&###$%",
".&###$%",
".&###$%",
".*###$%",
".+@##$%",
".&###$%",
".&###$%",
".&###$%",
".&###$%",
".&###$%",
".&###$%",
".&###$%",
".&###$%",
".&###$%",
".&###$%",
".&###$%",
".&###$%",
".*###$%",
".+@##$%",
".&###$%",
".&###$%",
".&###$%",
".&###$%",
".&###$%",
".&###$%",
".&###$%",
".&###$%",
".&###$%",
".*###$%",
".+@##$%",
".&###$%",
".&###$%",
".&###$%",
".&###$%",
".&###$%",
".&###$%",
".&###$%",
".&###$%",
".&###$%",
".*###$%",
".+@##$%",
".&###$%",
".&###$%",
".&###$%",
".&###$%",
".&###$%",
".&###$%",
".&###$%",
".&###$%",
".&###$%",
".*###$%",
".+@##$%",
".&###$%",
".&###$%",
".&###$%",
".&###$%",
".&###$%",
".&###$%",
".&###$%",
".&###$%",
".&###$%",
".*###$%",
".+@##$%",
".&###$%",
".&###$%",
".&###$%",
".&###$%",
".&###$%",
".&###$%",
".&###$%",
".&###$%",
".&###$%",
".*###$%",
".+@##$%",
".&###$%",
".&###$%",
".&###$%",
".&###$%",
".&###$%",
".&###$%",
".&###$%",
".&###$%",
".&###$%",
".*###$%",
".+@##$%",
".&###$%",
".&###$%",
".&###$%",
".&###$%",
".&###$%",
".&###$%",
".&###$%",
".&###$%",
".&###$%",
".*###$%",
".+@##$%",
".&###$%",
".&###$%",
".&###$%",
".&###$%",
".&###$%",
".&###$%",
".&###$%",
".&###$%",
".&###$%",
".*###$%",
".+@##$%",
".&###$%",
".&###$%",
".&###$%",
".&###$%",
".&###$%",
".&###$%",
".&###$%",
".&###$%",
".&###$%",
".*###$%",
".+@##$%",
".&###$%",
".&###$%",
".&###$%",
".&###$%",
".&###$%",
".&###$%",
".&###$%",
".&###$%",
".&###$%",
".*###$%",
".+@##$%",
".&###$%",
".&###$%",
".&###$%",
".&###$%",
".&###$%",
".&###$%",
".&###$%",
".&###$%",
".&###$%",
".*###$%",
".+@##$%",
".&###$%",
".&###$%",
".&###$%",
".&###$%",
".&###$%",
".&###$%",
".&###$%",
".&###$%",
".&###$%",
".*###$%",
".+@##$%",
".&###$%",
".&###$%",
".&###$%",
".&###$%",
".&###$%",
".&###$%",
".&###$%",
".&###$%",
".&###$%",
".*###$%",
".+@##$%",
".&###$%",
".&###$%",
".&###$%",
".&###$%",
".&###$%",
".&###$%",
".&###$%",
".&###$%",
".&###$%",
".*###$%",
".+@##$%",
".&###$%",
".&###$%",
".&###$%",
".&###$%",
".&###$%",
".&###$%",
".&###$%",
".&###$%",
".&###$%",
".*###$%",
".+@##$%",
".&###$%",
".&###$%",
".&###$%",
".&###$%",
".&###$%",
".&###$%",
".&###$%",
".&###$%",
".&###$%",
".*###$%",
".+@##$%",
".&###$%",
".&###$%",
".&###$%",
".&###$%",
".&###$%",
".&###$%",
".&###$%",
".&###$%",
".&###$%",
".*###$%",
".+@##$%",
".&###$%",
".&###$%",
".&###$%",
".&###$%",
".&###$%",
".&###$%",
".&###$%",
".&###$%",
".&###$%",
".*###$%",
".+@##$%",
".&###$%",
".&###$%",
".&###$%",
".&###$%",
".&###$%",
".&###$%",
".&###$%",
".&###$%",
".&###$%",
".*###$%",
".+@##$%",
".&###$%",
".&###$%",
".&###$%",
".&###$%",
".&###$%",
".&###$%",
".&###$%",
".&###$%",
".&###$%",
".*###$%",
".+@##$%",
".&###$%",
".&###$%",
".&###$%",
".&###$%",
".&###$%",
".&###$%",
".&###$%",
".&###$%",
".&###$%",
".*###$%",
".+@##$%",
".&###$%",
".&###$%",
".&###$%",
".&###$%",
".&###$%",
".&###$%",
".&###$%",
".&###$%",
".&###$%",
".*###$%",
".+@##$%",
".&###$%",
".&###$%",
".&###$%",
".&###$%",
".&###$%",
".*###$%",
".+@##$%",
".&###$%",
".&###$%",
".&###$%",
".&###$%",
".&###$%",
".&###$%",
".&###$%",
".&###$%",
".&###$%",
".*###$%",
".+@##$%",
".&###$%",
".&###$%",
".&###$%",
".&###$%",
".&###$%",
".&###$%",
".&###$%",
".&###$%",
".&###$%",
".*###$%",
".+@##$%",
".&###$%",
".&###$%",
".&###$%",
".&###$%",
".&###$%",
".&###$%",
".&###$%",
".&###$%",
".&###$%",
".*###$%",
".+@##$%",
".&###$%",
".&###$%",
".&###$%",
".&###$%",
".&###$%",
".&###$%",
".&###$%",
".&###$%",
".&###$%",
".*###$%",
".+@##$%",
".&###$%",
".&###$%",
".&###$%",
".&###$%",
".&###$%",
".&###$%",
".&###$%",
".&###$%",
".&###$%",
".*###$%",
".+@##$%",
".&###$%",
".&###$%",
".&###$%",
".&###$%",
".&###$%",
".&###$%",
".&###$%",
".&###$%",
".&###$%",
".*###$%",
".+@##$%",
".&###$%",
".&###$%",
".&###$%",
".&###$%",
".&###$%",
".&###$%",
".&###$%",
".&###$%",
".&###$%",
".*###$%",
".+@##$%",
".&###$%",
".&###$%",
".&###$%",
".&###$%",
".&###$%",
".&###$%",
".&###$%",
".&###$%",
".&###$%",
".*###$%",
".+@##$%",
".&###$%",
".&###$%",
".&###$%",
".&###$%",
".&###$%",
".&###$%",
".&###$%",
".&###$%",
".&###$%",
".*###$%",
".+@##$%",
".&###$%",
".&###$%",
".&###$%",
".&###$%",
".&###$%",
".&###$%",
".&###$%",
".&###$%",
".&###$%",
".*###$%",
".+@##$%",
".&###$%",
".&###$%",
".&###$%",
".&###$%",
".&###$%",
".&###$%",
".&###$%",
".&###$%",
".&###$%",
".*###$%",
".+@##$%",
".&###$%",
".&###$%",
".&###$%",
".&###$%",
".&###$%",
".&###$%",
".&###$%",
".&###$%",
".&###$%",
".*###$%",
".+@##$%",
".&###$%",
".&###$%",
".&###$%",
".&###$%",
".&###$%",
".&###$%",
".&###$%",
".&###$%",
".&###$%",
".*###$%",
".+@##$%",
".&###$%",
".&###$%",
".&###$%",
".&###$%",
".&###$%",
".&###$%",
".&###$%",
".&###$%",
".&###$%",
".*###$%",
".+@##$%",
".&###$%",
".&###$%",
".&###$%",
".&###$%",
".&###$%",
".&###$%",
".&###$%",
".&###$%",
".&###$%",
".*###$%",
".+@##$%",
".&###$%",
".&###$%",
".&###$%",
".&###$%",
".&###$%",
".&###$%",
".&###$%",
".&###$%",
".&###$%",
".*###$%",
".+@##$%",
".&###$%",
".&###$%",
".&###$%",
".&###$%",
".&###$%",
".&###$%",
".&###$%",
".&###$%",
".&###$%",
".*###$%",
".+@##$%",
".&###$%",
".&###$%",
".&###$%",
".&###$%",
".&###$%",
".&###$%",
".&###$%",
".&###$%",
".&###$%",
".*###$%",
".+@##$%",
".&###$%",
".&###$%",
".&###$%",
".&###$%",
".&###$%",
".&###$%",
".&###$%",
".&###$%",
".&###$%",
".*###$%",
".+@##$%",
".&###$%",
".&###$%",
".&###$%",
".&###$%",
".&###$%",
".&###$%",
".&###$%",
".&###$%",
".&###$%",
".*###$%",
".+@##$%",
".&###$%",
".&###$%",
".&###$%",
".&###$%",
".&###$%",
".&###$%",
".&###$%",
".&###$%",
".&###$%",
".*###$%",
".+@##$%",
".&###$%",
".&###$%",
".&###$%",
".&###$%",
".&###$%",
".&###$%",
".&###$%",
".&###$%",
".&###$%",
".*###$%",
".+@##$%",
".&###$%",
".&###$%",
".&###$%",
".&###$%",
".&###$%",
".&###$%",
".&###$%",
".&###$%",
".&###$%",
".*###$%",
".+@##$%",
".&###$%",
".&###$%",
".*###$%",
".+@##$%",
".&###$%",
".&###$%",
".&###$%",
".&###$%",
".&###$%",
".&###$%",
".&###$%",
".&###$%",
".&###$%",
".*###$%",
".+@##$%",
".&###$%",
".&###$%",
".&###$%",
".&###$%",
".&###$%",
".&###$%",
".&###$%",
".&###$%",
".&###$%",
".*###$%",
".+@##$%",
".&###$%",
".&###$%",
".&###$%",
".&###$%",
".&###$%",
".&###$%",
".&###$%",
".&###$%",
".&###$%",
".*###$%",
".+@##$%",
".&###$%",
".&###$%",
".&###$%",
".&###$%",
".&###$%",
".&###$%",
".&###$%",
".&###$%",
".&###$%",
".*###$%",
".+@##$%",
".&###$%",
".&###$%",
".&###$%",
".&###$%",
".&###$%",
".&###$%",
".&###$%",
".&###$%",
".&###$%",
".*###$%",
".+@##$%",
".&###$%",
".&###$%",
".&###$%",
".&###$%",
".&###$%",
".&###$%",
".&###$%",
".&###$%",
".&###$%",
".*###$%",
".+@##$%",
".&###$%",
".&###$%",
".&###$%",
".&###$%",
".&###$%",
".&###$%",
".&###$%",
".&###$%",
".&###$%",
".*###$%",
".+@##$%",
".&###$%",
".&###$%",
".&###$%",
".&###$%",
".&###$%",
".&###$%",
".&###$%",
".&###$%",
".&###$%",
".*###$%",
".+@##$%",
".&###$%",
".&###$%",
".&###$%",
".&###$%",
".&###$%",
".&###$%",
".&###$%",
".&###$%",
".&###$%",
".*###$%",
".+@##$%",
".&###$%",
".&###$%",
".&###$%",
".&###$%",
".&###$%",
".&###$%",
".&###$%",
".&###$%",
".&###$%",
".*###$%",
".+@##$%",
".&###$%",
".&###$%",
".&###$%",
".&###$%",
".&###$%",
".&###$%",
".&###$%",
".&###$%",
".&###$%",
".*###$%",
".+@##$%"};
