/* XPM */
static char * title_4_active_xpm[] = {
"11 26 64 1",
" 	c None",
".	c #000000",
"+	c #959595",
"@	c #ABABAB",
"#	c #8E8E8E",
"$	c #646464",
"%	c #434343",
"&	c #5C5C5C",
"*	c #5E5E5E",
"=	c #050505",
"-	c #373737",
";	c #595959",
">	c #040404",
",	c #020202",
"'	c #1A1A1A",
")	c #4C4C4C",
"!	c #535353",
"~	c #0F0F0F",
"{	c #0C0C0C",
"]	c #171717",
"^	c #4B4B4B",
"/	c #4D4D4D",
"(	c #141414",
"_	c #0E0E0E",
":	c #2C2C2C",
"<	c #474747",
"[	c #383838",
"}	c #363636",
"|	c #161616",
"1	c #080808",
"2	c #191919",
"3	c #3E3E3E",
"4	c #212121",
"5	c #0D0D0D",
"6	c #222222",
"7	c #2E2E2E",
"8	c #101010",
"9	c #060606",
"0	c #252525",
"a	c #343434",
"b	c #1F1F1F",
"c	c #1E1E1E",
"d	c #090909",
"e	c #525252",
"f	c #242424",
"g	c #3A3A3A",
"h	c #545454",
"i	c #2B2B2B",
"j	c #404040",
"k	c #454545",
"l	c #121212",
"m	c #202020",
"n	c #3B3B3B",
"o	c #151515",
"p	c #323232",
"q	c #0A0A0A",
"r	c #2D2D2D",
"s	c #181818",
"t	c #575757",
"u	c #616161",
"v	c #1B1B1B",
"w	c #626262",
"x	c #484848",
"y	c #282828",
"...........",
"+++++++++++",
"@@@@@@@@@@@",
"###########",
"$$$$$$$$$$$",
"%&*********",
".=-;;;;;;;;",
".>,')!!!!!!",
"~.{=]^/////",
".(._>:<<<<<",
"[}|.12,,,,,",
".3.(.45>>>>",
"6.37{8]9999",
".0.a.bcdddd",
"eef.'g4{{{{",
".h.2.^|____",
"i.jf]klllll",
".m.ln0ooooo",
"p6qr[ssssss",
"{tu[vvvvvvv",
"wxfbbbbbbbb",
"66666666666",
"00000000000",
"yyyyyyyyyyy",
"iiiiiiiiiii",
"]]]]]]]]]]]"};
