/* XPM */
static char * title_1_inactive_xpm[] = {
"2 26 27 1",
" 	c None",
".	c #000000",
"+	c #959595",
"@	c #ABABAB",
"#	c #8E8E8E",
"$	c #646464",
"%	c #5E5E5E",
"&	c #595959",
"*	c #535353",
"=	c #4D4D4D",
"-	c #474747",
";	c #020202",
">	c #040404",
",	c #060606",
"'	c #090909",
")	c #0C0C0C",
"!	c #0E0E0E",
"~	c #121212",
"{	c #151515",
"]	c #181818",
"^	c #1B1B1B",
"/	c #1F1F1F",
"(	c #222222",
"_	c #252525",
":	c #282828",
"<	c #2B2B2B",
"[	c #171717",
"..",
"++",
"@@",
"##",
"$$",
"%%",
"&&",
"**",
"==",
"--",
";;",
">>",
",,",
"''",
"))",
"!!",
"~~",
"{{",
"]]",
"^^",
"//",
"((",
"__",
"::",
"<<",
"[["};
