/* XPM */
static char * title_2_inactive_xpm[] = {
"16 26 63 1",
" 	c None",
".	c #000000",
"+	c #959595",
"@	c #ABABAB",
"#	c #8E8E8E",
"$	c #646464",
"%	c #5E5E5E",
"&	c #545454",
"*	c #595959",
"=	c #4F4F4F",
"-	c #1A1A1A",
";	c #535353",
">	c #373737",
",	c #090909",
"'	c #040404",
")	c #4D4D4D",
"!	c #383838",
"~	c #070707",
"{	c #121212",
"]	c #474747",
"^	c #444444",
"/	c #171717",
"(	c #0B0B0B",
"_	c #2A2A2A",
":	c #020202",
"<	c #0D0D0D",
"[	c #080808",
"}	c #262626",
"|	c #191919",
"1	c #1D1D1D",
"2	c #303030",
"3	c #202020",
"4	c #060606",
"5	c #2B2B2B",
"6	c #0F0F0F",
"7	c #424242",
"8	c #0E0E0E",
"9	c #1F1F1F",
"0	c #4A4A4A",
"a	c #0C0C0C",
"b	c #3C3C3C",
"c	c #272727",
"d	c #363636",
"e	c #1C1C1C",
"f	c #404040",
"g	c #252525",
"h	c #505050",
"i	c #0A0A0A",
"j	c #484848",
"k	c #151515",
"l	c #494949",
"m	c #464646",
"n	c #181818",
"o	c #1E1E1E",
"p	c #5B5B5B",
"q	c #333333",
"r	c #1B1B1B",
"s	c #575757",
"t	c #3B3B3B",
"u	c #292929",
"v	c #565656",
"w	c #222222",
"x	c #282828",
"................",
"++++++++++++++++",
"@@@@@@@@@@@@@@@@",
"################",
"$$$$$$$$$$$$$$$$",
"%%%%%%%%%%%%%%%&",
"*************=-.",
";;;;;;;;;;;;>,.'",
")))))))))))!~.{-",
"]]]]]]]]]]^/.(._",
"::::::::::<[{}|.",
"''''''''''1,.2.3",
"444444444456{.7^",
",,,,,,,,,,>8.9.0",
"aaaaaaaaaab:_7c.",
"8888888888de.f.5",
"{{{{{{{{{{ghi.j&",
"kkkkkkkkkkkl,8.m",
"nnnnnnnnnnnopq(.",
"rrrrrrrrrrrr3stu",
"99999999999999>v",
"wwwwwwwwwwwwwwww",
"gggggggggggggggg",
"xxxxxxxxxxxxxxxx",
"5555555555555555",
"////////////////"};
