/* XPM */
static char * title_3_inactive_xpm[] = {
"4 26 35 1",
" 	c None",
".	c #000000",
"+	c #959595",
"@	c #ABABAB",
"#	c #8E8E8E",
"$	c #646464",
"%	c #383838",
"&	c #121212",
"*	c #090909",
"=	c #242424",
"-	c #181818",
";	c #303030",
">	c #3A3A3A",
",	c #1D1D1D",
"'	c #404040",
")	c #202020",
"!	c #222222",
"~	c #444444",
"{	c #252525",
"]	c #4A4A4A",
"^	c #525252",
"/	c #292929",
"(	c #585858",
"_	c #2C2C2C",
":	c #2E2E2E",
"<	c #5C5C5C",
"[	c #2B2B2B",
"}	c #565656",
"|	c #424242",
"1	c #212121",
"2	c #1C1C1C",
"3	c #0E0E0E",
"4	c #767676",
"5	c #282828",
"6	c #171717",
"....",
"++++",
"@@@@",
"####",
"$$$$",
"%%%%",
"....",
".&.*",
"&.==",
".-.;",
">>,.",
".'.)",
"!.~~",
".{.]",
"^^/.",
".(._",
":.<<",
".[.}",
"||1.",
".2.3",
"4444",
"!!!!",
"{{{{",
"5555",
"[[[[",
"6666"};
