/* XPM */
static char * top_left_inactive_xpm[] = {
"26 26 92 2",
"  	c None",
". 	c #080808",
"+ 	c #1A1A1A",
"@ 	c #000000",
"# 	c #070707",
"$ 	c #525252",
"% 	c #7B7B7B",
"& 	c #959595",
"* 	c #AEAEAE",
"= 	c #616161",
"- 	c #838383",
"; 	c #878787",
"> 	c #B2B2B2",
", 	c #ABABAB",
"' 	c #C6C6C6",
") 	c #5F5F5F",
"! 	c #8C8C8C",
"~ 	c #767676",
"{ 	c #949494",
"] 	c #8F8F8F",
"^ 	c #8E8E8E",
"/ 	c #B1B1B1",
"( 	c #5C5C5C",
"_ 	c #707070",
": 	c #888888",
"< 	c #717171",
"[ 	c #666666",
"} 	c #646464",
"| 	c #909090",
"1 	c #595959",
"2 	c #4F4F4F",
"3 	c #5E5E5E",
"4 	c #8A8A8A",
"5 	c #565656",
"6 	c #4A4A4A",
"7 	c #5B5B5B",
"8 	c #868686",
"9 	c #474747",
"0 	c #545454",
"a 	c #535353",
"b 	c #808080",
"c 	c #4E4E4E",
"d 	c #424242",
"e 	c #4D4D4D",
"f 	c #3D3D3D",
"g 	c #464646",
"h 	c #444444",
"i 	c #373737",
"j 	c #414141",
"k 	c #3E3E3E",
"l 	c #363636",
"m 	c #020202",
"n 	c #151515",
"o 	c #3F3F3F",
"p 	c #202020",
"q 	c #393939",
"r 	c #292929",
"s 	c #141414",
"t 	c #040404",
"u 	c #0C0C0C",
"v 	c #060606",
"w 	c #353535",
"x 	c #242424",
"y 	c #0F0F0F",
"z 	c #121212",
"A 	c #383838",
"B 	c #050505",
"C 	c #131313",
"D 	c #090909",
"E 	c #333333",
"F 	c #0D0D0D",
"G 	c #222222",
"H 	c #2E2E2E",
"I 	c #0A0A0A",
"J 	c #0E0E0E",
"K 	c #262626",
"L 	c #0B0B0B",
"M 	c #2F2F2F",
"N 	c #111111",
"O 	c #181818",
"P 	c #3B3B3B",
"Q 	c #1B1B1B",
"R 	c #171717",
"S 	c #1F1F1F",
"T 	c #191919",
"U 	c #4B4B4B",
"V 	c #252525",
"W 	c #505050",
"X 	c #1D1D1D",
"Y 	c #282828",
"Z 	c #2B2B2B",
"` 	c #232323",
"      . + @ @ @ @ @ @ @ @ @ @ @ @ @ @ @ @ @ @ @ @ @ ",
"    # $ % & & & & * = - & & & & & & & & & & & & & & ",
"  . ; > * , , , , ' ) ! , , , , , , , , , , , , , , ",
". ~ { ] ^ ^ ^ ^ ^ / ( _ ^ ^ ^ ^ ^ ^ ^ ^ ^ ^ ^ ^ ^ ^ ",
": < [ } } } } } } | 1 2 } } } } } } } } } } } } } } ",
": } 3 3 3 3 3 3 3 4 5 6 3 3 3 3 3 3 3 3 3 3 3 3 3 3 ",
": 7 1 1 1 1 1 1 1 8 $ 9 1 1 1 1 1 1 1 1 1 1 1 1 1 1 ",
": 0 a a a a a a a b c d a a a a a a a a a a a a a a ",
": e e e e e e e e % 6 f e e e e e e e e e e e e e e ",
": 9 9 9 g 9 9 9 h _ g i 9 9 9 9 9 9 9 9 9 9 9 9 9 9 ",
": j j k l m m m n o j p m m m m m m m m m m m m m m ",
": f q r s t t t t u f v t t t t t t t t t t t t t t ",
": w x y # v v v v z A B v v v v v v v v v v v v v v ",
": r C D D D D D D + E # D D D D D D D D D D D D D D ",
": p F u u u u u u G H I u u u u u u u u u u u u u u ",
": s J J J J J J J K r L J J J J J J J J J J J J J J ",
": z z z z z z z z M x J z z z z z z z z z z z z z z ",
": n n n n n n n n l p N n n n n n n n n n n n n n n ",
": O O O O O O O O P Q C O O O O O O O O O O O O O O ",
": Q Q Q Q Q Q Q Q j R n Q Q Q Q Q Q Q Q Q Q Q Q Q Q ",
": S S S S S S S S 9 C T S S S S S S S S S S S S S S ",
": G G G G G G G G U y Q G G G G G G G G G G G G G G ",
": V V V V V V V V W L X V V V V V V V V V V V V V V ",
": Y Y Y Y Y Y Y Y 0 . p Y Y Y Y Y Y Y Y Y Y Y Y Y Y ",
": Z Z Z Z Z Z Z Z 5 B ` Z Z Z Z Z Z Z Z Z Z Z Z Z Z ",
": H H H H R R R R R n S R R R R R R R R R R R R R R "};
