/* XPM */
static char * top_right_inactive_xpm[] = {
"26 26 92 2",
"  	c None",
". 	c #000000",
"+ 	c #1A1A1A",
"@ 	c #959595",
"# 	c #838383",
"$ 	c #616161",
"% 	c #AEAEAE",
"& 	c #7B7B7B",
"* 	c #525252",
"= 	c #070707",
"- 	c #ABABAB",
"; 	c #8C8C8C",
"> 	c #5F5F5F",
", 	c #C6C6C6",
"' 	c #B2B2B2",
") 	c #878787",
"! 	c #3F3F3F",
"~ 	c #8E8E8E",
"{ 	c #707070",
"] 	c #5C5C5C",
"^ 	c #B1B1B1",
"/ 	c #8F8F8F",
"( 	c #949494",
"_ 	c #767676",
": 	c #646464",
"< 	c #4F4F4F",
"[ 	c #595959",
"} 	c #909090",
"| 	c #666666",
"1 	c #717171",
"2 	c #5E5E5E",
"3 	c #4A4A4A",
"4 	c #565656",
"5 	c #8A8A8A",
"6 	c #888888",
"7 	c #474747",
"8 	c #868686",
"9 	c #5B5B5B",
"0 	c #535353",
"a 	c #424242",
"b 	c #4E4E4E",
"c 	c #808080",
"d 	c #545454",
"e 	c #4D4D4D",
"f 	c #3D3D3D",
"g 	c #373737",
"h 	c #464646",
"i 	c #444444",
"j 	c #020202",
"k 	c #202020",
"l 	c #414141",
"m 	c #151515",
"n 	c #363636",
"o 	c #3E3E3E",
"p 	c #040404",
"q 	c #060606",
"r 	c #0C0C0C",
"s 	c #141414",
"t 	c #292929",
"u 	c #393939",
"v 	c #050505",
"w 	c #383838",
"x 	c #121212",
"y 	c #0F0F0F",
"z 	c #242424",
"A 	c #353535",
"B 	c #090909",
"C 	c #333333",
"D 	c #131313",
"E 	c #0A0A0A",
"F 	c #2E2E2E",
"G 	c #222222",
"H 	c #0D0D0D",
"I 	c #0E0E0E",
"J 	c #0B0B0B",
"K 	c #262626",
"L 	c #2F2F2F",
"M 	c #111111",
"N 	c #181818",
"O 	c #1B1B1B",
"P 	c #3B3B3B",
"Q 	c #171717",
"R 	c #1F1F1F",
"S 	c #191919",
"T 	c #4B4B4B",
"U 	c #252525",
"V 	c #1D1D1D",
"W 	c #505050",
"X 	c #282828",
"Y 	c #080808",
"Z 	c #2B2B2B",
"` 	c #232323",
". . . . . . . . . . . . . . . . . . . . . +         ",
"@ @ @ @ @ @ @ @ @ @ @ @ @ @ # $ % @ @ @ @ & * =     ",
"- - - - - - - - - - - - - - ; > , - - - - % ' ) !   ",
"~ ~ ~ ~ ~ ~ ~ ~ ~ ~ ~ ~ ~ ~ { ] ^ ~ ~ ~ ~ ~ / ( _ ! ",
": : : : : : : : : : : : : : < [ } : : : : : : | 1 ! ",
"2 2 2 2 2 2 2 2 2 2 2 2 2 2 3 4 5 2 2 2 2 2 2 2 : 6 ",
"[ [ [ [ [ [ [ [ [ [ [ [ [ [ 7 * 8 [ [ [ [ [ [ [ 9 6 ",
"0 0 0 0 0 0 0 0 0 0 0 0 0 0 a b c 0 0 0 0 0 0 0 d 6 ",
"e e e e e e e e e e e e e e f 3 & e e e e e e e e 6 ",
"7 7 7 7 7 7 7 7 7 7 7 7 7 7 g h { i 7 7 7 h 7 7 7 6 ",
"j j j j j j j j j j j j j j k l ! m j j j n o l l 6 ",
"p p p p p p p p p p p p p p q f r p p p p s t u f 6 ",
"q q q q q q q q q q q q q q v w x q q q q = y z A 6 ",
"B B B B B B B B B B B B B B = C + B B B B B B D t 6 ",
"r r r r r r r r r r r r r r E F G r r r r r r H k 6 ",
"I I I I I I I I I I I I I I J t K I I I I I I I s 6 ",
"x x x x x x x x x x x x x x I z L x x x x x x x x 6 ",
"m m m m m m m m m m m m m m M k n m m m m m m m m 6 ",
"N N N N N N N N N N N N N N D O P N N N N N N N N 6 ",
"O O O O O O O O O O O O O O m Q l O O O O O O O O 6 ",
"R R R R R R R R R R R R R R S D 7 R R R R R R R R 6 ",
"G G G G G G G G G G G G G G O y T G G G G G G G G 6 ",
"U U U U U U U U U U U U U U V J W U U U U U U U U 6 ",
"X X X X X X X X X X X X X X k Y d X X X X X X X X 6 ",
"Z Z Z Z Z Z Z Z Z Z Z Z Z Z ` v 4 Z Z Z Z Z Z Z Z 6 ",
"Q Q Q Q Q Q Q Q Q Q Q Q Q Q R m Q Q Q Q Q F F F F 6 "};
